<!-- Generator: Adobe Illustrator 24.1.0, SVG Export Plug-In  -->
<svg version="1.1" xmlns="http://www.w3.org/2000/svg" xmlns:xlink="http://www.w3.org/1999/xlink" x="0px" y="0px" width="333px"
	 height="333px" viewBox="0 0 333 333" style="enable-background:new 0 0 333 333;" xml:space="preserve">
<style type="text/css">
	.st0{fill:url(#SVGID_1_);}
	.st1{fill:#FFFFFF;}
	.st2{opacity:0.87;}
	.st3{fill:url(#SVGID_2_);}
	.st4{fill:url(#SVGID_3_);}
	.st5{fill:url(#SVGID_4_);}
	.st6{fill:url(#SVGID_5_);}
	.st7{fill:#FF4800;}
	.st8{fill:#7D1043;}
	.st9{fill:url(#SVGID_6_);}
	.st10{fill:url(#SVGID_7_);}
	.st11{fill:url(#SVGID_8_);}
	.st12{fill:url(#SVGID_9_);}
	.st13{fill:url(#SVGID_10_);}
</style>
<defs>
</defs>
<g>
	<linearGradient id="SVGID_1_" gradientUnits="userSpaceOnUse" x1="0" y1="166.5" x2="333" y2="166.5">
		<stop  offset="0" style="stop-color:#7D1043"/>
		<stop  offset="0.3205" style="stop-color:#A90C55"/>
		<stop  offset="1" style="stop-color:#F15A24"/>
	</linearGradient>
	<circle class="st0" cx="166.5" cy="166.5" r="166.5"/>
	<circle class="st1" cx="166.5" cy="166.99" r="155.34"/>
	<g>
		<g class="st2">
			<radialGradient id="SVGID_2_" cx="158.7546" cy="170.8052" r="118.4429" gradientUnits="userSpaceOnUse">
				<stop  offset="0.5833" style="stop-color:#F15A24"/>
				<stop  offset="0.849" style="stop-color:#A90C55"/>
				<stop  offset="1" style="stop-color:#7D1043"/>
			</radialGradient>
			<path class="st3" d="M85.77,98.57c0.64-0.52,1.24-1.11,1.94-1.55c0.58-0.36,1.26-0.56,1.9-0.81c1.48-0.57,1.49-0.56,1.37-2.1
				c-0.09-1.1,0.41-1.5,1.39-0.98c0.49,0.26,0.94,0.78,1.21,1.28c0.47,0.89,1.14,1.43,2.11,1.52c0.34,0.03,0.86-0.09,1.03-0.33
				c0.16-0.23,0.07-0.76-0.1-1.05c-0.77-1.35-2.13-1.72-3.53-1.84c-1.71-0.15-3.43-0.11-5.14-0.2c-0.66-0.03-1.32-0.14-1.96-0.31
				c-0.79-0.22-1.36-0.72-1.6-1.78c0.78-0.08,1.53-0.18,2.27-0.22c0.74-0.04,1.49,0.01,2.24-0.04c0.29-0.02,0.59-0.17,0.83-0.34
				c0.15-0.11,0.29-0.39,0.25-0.54c-0.05-0.15-0.32-0.3-0.51-0.31c-0.47-0.03-0.96,0.12-1.4,0.01c-0.46-0.13-1.06-0.39-1.21-0.76
				c-0.13-0.3,0.21-0.93,0.51-1.25c0.72-0.76,1.54-1.42,2.32-2.13c0.59-0.53,1.23-0.64,2-0.41c0.81,0.24,1.64,0.37,2.46,0.55
				c0.03-0.09,0.07-0.17,0.1-0.26c-0.39-0.22-0.77-0.45-1.17-0.66c-0.73-0.39-1.53-0.68-2.19-1.16c-1.49-1.07-1.78-3.31-0.68-4.63
				c0.78-0.93,1.26-0.88,1.79,0.19c0.4,0.82,0.73,1.67,1.17,2.47c0.52,0.94,1.08,1.03,1.98,0.45c0.25-0.17,0.52-0.32,0.78-0.47
				c0.25-0.15,0.5-0.29,0.71-0.61c-0.65,0-1.29,0.04-1.94-0.01c-0.88-0.07-1.09-0.55-0.61-1.3c0.16-0.25,0.37-0.48,0.58-0.7
				c0.21-0.21,0.46-0.4,0.8-0.69c-0.43-0.29-0.75-0.47-1.04-0.7c-0.81-0.66-1.69-1.26-2.4-2.03c-1.3-1.42-1.27-3-0.22-4.62
				c0.31-0.48,0.33-1.18,0.39-1.8c0.06-0.7,0.01-1.4,0.01-2.12c0.84,0.11,1.54,0.26,2.25,0.28c0.76,0.02,1.01-0.37,0.56-0.98
				c-0.6-0.81-1.3-1.58-2.06-2.24c-1.12-0.97-1.36-1.54-0.57-2.75c0.99-1.52,0.6-3.06-0.91-4.07c-0.89-0.6-1.77-1.25-2.53-1.99
				c-0.51-0.49-1.15-1.15-0.58-1.95c0.57-0.81,1.37-0.38,2.03-0.08c0.8,0.36,1.54,0.87,2.35,1.23c0.37,0.17,0.83,0.15,1.25,0.22
				c0.04-0.11,0.08-0.22,0.13-0.32c-0.32-0.28-0.62-0.6-0.97-0.83c-0.9-0.59-1.9-1.05-2.73-1.72c-0.69-0.55-1.29-1.27-1.75-2.03
				c-0.43-0.7-0.2-1.23,0.58-1.51c0.73-0.26,0.65-0.67,0.31-1.13c-0.77-1.04-1.55-2.08-2.39-3.07c-1.1-1.3-1.22-2.43-0.22-3.81
				c0.43-0.59,1-1.08,1.54-1.66c0.55,0.83,1.04,1.55,1.6,2.4c0.35-0.49,0.57-0.86,0.85-1.19c0.45-0.53,0.89-1.06,1.4-1.52
				c0.81-0.75,1.26-0.68,1.97,0.38c0.31,0.47,0.43,1.07,0.62,1.61c0.11,0.31,0.2,0.62,0.37,1.16c0.61-0.74,1.11-1.33,1.65-1.97
				c0.57,0.58,1.25,0.63,2.04,0.47c0.71-0.14,1.47-0.24,1.82,0.78c0.11,0.32,0.66,0.59,1.06,0.7c1.2,0.32,2.43,0.53,3.64,0.8
				c0.45,0.1,0.92,0.23,1.32,0.45c0.25,0.14,0.55,0.5,0.54,0.74c-0.05,0.73,0.37,0.91,0.93,1.01c1.14,0.2,2.29,0.37,3.43,0.6
				c0.76,0.15,1.53,0.31,1.54,1.4c0,0.22,0.59,0.57,0.95,0.62c1.21,0.17,2.44,0.27,3.67,0.33c1.33,0.07,2.29,0.65,2.98,1.79
				c0.39,0.64,0.83,1.29,1.36,1.82c6.4,6.37,9.39,14.08,9.05,23.06c-0.09,2.31-0.45,4.62-0.86,6.9c-0.5,2.78-0.45,5.52,0.39,8.2
				c1.74,5.59,3.53,11.17,6.15,16.44c0.98,1.97,2.1,3.86,3.18,5.81c2.24-0.51,4.57-1.09,6.91-1.58c5.73-1.19,11.53-1.73,17.37-1.9
				c6.46-0.18,12.88,0.31,19.25,1.33c2.56,0.41,5.09,1.02,7.64,1.5c0.25,0.05,0.7-0.07,0.82-0.27c3.58-5.65,7.22-11.26,10.64-17.01
				c1.96-3.29,3.05-6.93,2.83-10.85c-0.14-2.46-0.49-4.91-0.46-7.36c0.1-9.64,3.89-17.56,11.37-23.69c0.34-0.28,0.69-0.58,1.09-0.75
				c1.43-0.64,2.26-1.77,3.03-3.09c0.74-1.27,1.7-2.45,2.75-3.5c1.03-1.04,1.91-0.74,2.44,0.62c0.54,1.38,1.71,1.84,3.01,2
				c2.17,0.26,4.25-0.15,6.17-1.19c0.4-0.22,0.88-0.51,1.06-0.89c0.48-1.01,1.23-0.88,2.01-0.61c0.73,0.25,1.4,0.35,2.01-0.23
				c0.44,0.71,0.86,1.38,1.37,2.21c0.25-0.5,0.4-0.81,0.55-1.13c0.21-0.42,0.36-0.89,0.64-1.25c0.91-1.14,1.48-1.3,2.33-0.17
				c0.62,0.83,1.12,1.75,1.77,2.77c0.6-0.67,1.17-1.31,1.78-2c0.96,0.84,1.61,1.83,1.8,3.08c0.13,0.93-0.27,1.64-0.96,2.26
				c-1.03,0.92-2.01,1.9-2.98,2.87c-0.46,0.46-0.51,0.87,0.2,1.2c0.66,0.31,0.79,0.94,0.37,1.45c-0.54,0.67-1.18,1.32-1.9,1.77
				c-0.88,0.54-1.92,0.85-2.87,1.29c-0.46,0.21-0.87,0.52-1.31,0.78c0.02,0.11,0.04,0.22,0.06,0.34c0.39,0.01,0.81,0.12,1.17,0.02
				c0.77-0.22,1.5-0.57,2.26-0.82c0.44-0.14,0.92-0.27,1.37-0.24c0.33,0.02,0.79,0.23,0.94,0.5c0.14,0.26,0.09,0.82-0.11,1.03
				c-0.55,0.6-1.18,1.14-1.86,1.6c-0.63,0.43-1.38,0.69-2.04,1.09c-1.35,0.82-1.7,1.9-1.13,3.39c0.64,1.69,0.47,2.04-1.06,3.03
				c-0.8,0.52-1.52,1.19-2.19,1.87c-0.44,0.44-0.31,0.91,0.37,0.97c0.71,0.06,1.43,0.01,2.32,0.01c-0.07,0.63-0.07,1.25-0.21,1.85
				c-0.2,0.89-0.22,1.67,0.25,2.54c0.68,1.25,0.52,2.6-0.51,3.6c-0.81,0.8-1.84,1.39-2.79,2.03c-0.4,0.27-0.87,0.45-1.38,0.7
				c0.33,0.48,0.65,0.89,0.92,1.32c0.54,0.88,0.42,1.22-0.57,1.63c0.04,0.42,0.08,0.86,0.13,1.52c0.42-0.24,0.8-0.35,1-0.6
				c0.5-0.62,0.92-1.31,1.37-1.97c0.33-0.47,0.67-0.93,0.98-1.36c1.88,0.56,2.09,3.66,0.56,4.84c-0.76,0.59-1.76,0.86-2.65,1.27
				c-0.2,0.09-0.44,0.09-0.63,0.2c-0.19,0.11-0.32,0.29-0.48,0.45c0.19,0.07,0.38,0.18,0.57,0.19c0.33,0.02,0.68,0.02,0.99-0.07
				c1.24-0.37,2.14,0.08,2.87,1.07c0.54,0.73,1.2,1.39,1.7,2.14c0.21,0.32,0.32,0.88,0.17,1.2c-0.12,0.27-0.67,0.43-1.04,0.46
				c-0.45,0.04-0.92-0.13-1.39-0.14c-0.27,0-0.55,0.14-0.82,0.21c0.15,0.27,0.25,0.68,0.47,0.77c0.64,0.24,1.32,0.37,1.99,0.5
				c0.96,0.2,1.92,0.37,2.94,0.56c-0.33,1.05-0.96,1.56-1.76,1.57c-1.51,0.02-3.02-0.12-4.53-0.22c-0.69-0.05-1.37-0.15-2.06-0.24
				c-0.63-0.08-0.97,0.11-0.84,0.83c0.43-0.12,0.85-0.31,1.29-0.36c0.78-0.09,0.98,0.15,0.91,0.94c-0.02,0.19-0.03,0.4-0.11,0.57
				c-0.55,1.17-0.3,1.11,0.72,1.76c1.02,0.65,2.05,1.3,3.04,1.99c0.3,0.21,0.5,0.56,0.77,0.89c-1.33,0.83-2.71,0.73-4.09,0.71
				c-1.02-0.01-2.05-0.04-3.07-0.03c-0.78,0.01-1.39,0.27-1.49,1.18c-0.03,0.29-0.15,0.58-0.27,0.99c1.11-0.08,2.12-0.19,3.13-0.2
				c0.54-0.01,1.17,0.01,1.59,0.28c0.36,0.23,0.58,0.83,0.66,1.29c0.03,0.15-0.56,0.56-0.89,0.59c-0.84,0.07-1.7-0.02-2.55-0.01
				c-0.49,0.01-0.99,0.09-1.48,0.24c1.48,0.68,3.28,0.16,4.8,1.35c0.83-1.02,1.79-2.12,2.66-3.28c4.56-6.07,10.29-10.45,17.78-12.28
				c0.91-0.22,1.57-0.64,2.18-1.33c0.98-1.09,1.98-2.18,3.11-3.1c2.46-2,4.59-4.31,6.67-6.68c1.45-1.65,3.02-3.16,4.97-4.22
				c0.56-0.3,0.92-0.24,1.35,0.22c1.21,1.31,1.27,2.61,0.02,3.87c-0.91,0.92-1.91,1.75-2.86,2.62c0.04,0.07,0.07,0.15,0.11,0.22
				c0.51-0.23,1.05-0.43,1.53-0.71c0.57-0.34,1.07-0.79,1.63-1.14c0.71-0.45,1.53-0.29,1.91,0.31c0.38,0.6,0.18,1.25-0.5,1.76
				c-0.59,0.44-1.16,0.89-1.74,1.34c0.03,0.11,0.05,0.22,0.08,0.33c0.46,0.05,0.93,0.19,1.38,0.14c1.01-0.11,2.02-0.33,3.03-0.48
				c0.38-0.06,0.78-0.09,1.15-0.05c0.78,0.09,1.18,0.53,1.02,1.3c-0.14,0.66-0.4,1.32-0.75,1.91c-0.78,1.33-1.43,2.68-1.52,4.25
				c-0.05,0.87-0.58,1.35-1.35,1.6c-1.04,0.34-2.1,0.65-3.24,1c0.74,1.15,1.45,2.25,2.17,3.35c0.26,0.39,0.6,0.74,0.79,1.16
				c0.15,0.33,0.32,0.88,0.16,1.09c-0.66,0.88-0.34,1.62,0.07,2.45c0.41,0.85-0.03,1.53-0.64,2.14c-0.62,0.62-1.24,1.25-1.8,1.93
				c-0.54,0.65-1.01,1.36-1.59,2.14c1.24-0.04,2.38,0.08,3.19,1.13c-1.96,1.54-4.22,1.99-6.62,1.92c-1.19-0.04-2.37-0.11-3.56-0.21
				c-0.74-0.07-1.21,0.21-1.5,1.07c1.6,0.32,3.19,0.6,4.76,0.96c1.48,0.33,2.96,0.68,4.39,1.16c0.54,0.18,1.4,0.9,1.32,1.13
				c-0.2,0.65-0.7,1.37-1.28,1.68c-0.77,0.41-1.72,0.54-2.62,0.65c-1.37,0.17-2.75,0.22-4.12,0.33c-0.13,0.01-0.25,0.09-0.44,0.15
				c0.17,1.2,0.69,2.22,1.63,2.89c1.21,0.86,2.53,1.55,3.82,2.29c0.71,0.41,1.45,0.76,2.24,1.17c-1.64,1.19-3.28,0.6-4.94,0.45
				c0.18,0.11,0.36,0.24,0.55,0.34c0.6,0.34,1.23,0.64,1.78,1.05c0.24,0.18,0.46,0.59,0.43,0.87c-0.02,0.19-0.46,0.42-0.75,0.5
				c-1.02,0.28-1.99,0.01-2.88-0.47c-1.02-0.55-2.03-1.14-2.97-1.81c-1.72-1.25-3.62-1.38-5.61-1.02c-0.25,0.05-0.46,0.31-0.69,0.48
				c0.18,0.18,0.33,0.44,0.55,0.53c2.28,0.99,4.57,1.94,6.86,2.92c1.35,0.57,2.7,1.13,4.02,1.77c0.47,0.22,0.85,0.64,1.34,1.02
				c-0.36,0.27-0.58,0.43-0.89,0.67c1.27,0.12,2.46,0.22,3.64,0.35c5.8,0.67,11.3,2.33,16.48,5.03c3.26,1.7,4.76,3.4,6.73,7.34
				c0.71-0.29,1.55-0.84,2.15-0.09c0.26,0.32-0.08,1.12-0.17,1.92c0.66,0.79,0.92,0.84,3.87,0.53c-0.46,0.95-0.89,1.85-1.43,2.95
				c0.58-0.19,0.94-0.29,1.29-0.43c1.2-0.51,1.97-0.41,2.52,0.38c0.57,0.8,0.43,1.63-0.46,2.61c0.22,0.45,0.44,0.92,0.73,1.5
				c-0.5,0.09-0.91,0.16-1.26,0.23c-0.04,0.49,0.1,1.14-0.16,1.44c-0.25,0.28-0.92,0.2-1.49,0.29c-0.01,1.83-1.74,2.04-3.11,2.74
				c-0.32-0.46-0.64-0.91-0.95-1.36c-0.37-0.53-0.77-0.64-1.32-0.22c-0.18,0.13-0.55,0.14-0.78,0.05c-0.48-0.18-0.93-0.46-1.36-0.68
				c-0.67,0.99-1.29,1.92-2.05,3.03c-0.24-0.84-0.42-1.44-0.6-2.09c-0.32,0.17-0.61,0.32-0.91,0.47c0.18,0.75,0.36,1.49,0.54,2.24
				c-0.82,0.32-1.38,0.01-1.66-0.54c-0.47-0.92-1.07-1.16-1.96-0.67c0.27,0.78,0.55,1.61,0.83,2.43c-0.06,0.03-0.13,0.05-0.19,0.08
				c-1-0.65-2-1.3-3-1.95c-0.09,0.06-0.17,0.12-0.26,0.18c0.23,0.86,0.45,1.72,0.71,2.57c0.26,0.86-0.05,1.66-0.97,2.38
				c-0.66,0.51-1.46,0.6-2.15,0.06c-0.58-0.45-1.07-1.03-1.55-1.6c-0.42-0.49-0.76-1.04-1.18-1.64c0.44,1.05,0.89,1.98,1.22,2.96
				c0.18,0.54,0.45,1.3-0.21,1.66c-0.65,0.35-1.14-0.27-1.53-0.72c-0.83-0.94-1.61-1.93-2.41-2.92c-0.15,1.69,1.79,4.91,3.18,5.23
				c0.09,0.57-0.13,0.88-0.69,1.11c-0.41,0.17-0.78,0.49-1.11,0.81c-0.73,0.7-1.21,0.76-2.05,0.2c-0.33-0.22-0.68-0.4-1.16-0.67
				c0.09,1.37,0.79,2.21,1.53,3.11c-1.49,0.28-2.71-0.13-3.73-1.06c-0.82-0.74-1.55-1.58-2.31-2.38c-0.78-0.81-1.56-1.63-2.68-2
				c-0.65,2.19,1.52,4.74,4.52,5.29c-0.8,0.9-1.64,1.5-2.77,1.28c0.43,0.58,0.9,1.21,1.44,1.94c-2.27,0.65-3.41-1.09-5.11-1.89
				c-0.12,0.62-0.2,1.17-0.34,1.71c-0.15,0.63,0.09,1.02,0.59,1.39c0.45,0.35,0.48,0.85,0.07,1.31c-0.22,0.25-0.46,0.48-0.71,0.75
				c0.16,0.32,0.36,0.62,0.45,0.95c0.08,0.29,0.02,0.62,0.02,1.01c-1.36-0.21-2.43-0.75-3.26-1.6c-1.3-1.31-2.48-2.74-3.69-4.14
				c-0.48-0.56-0.9-1.18-1.32-1.74c-0.96,0.17-1.22,0.65-0.92,1.49c0.53,1.48,0.99,2.99,1.59,4.44c0.22,0.53,0.75,0.94,1.15,1.4
				c0.85,0.96,1.06,2.03,0.61,3.26c-1.25-0.14-2.01-0.99-2.82-1.77c-0.74-0.71-1.43-1.46-2.2-2.13c-0.74-0.64-1.56-0.75-2.44-0.19
				c-0.81,0.52-1.48,0.13-2.09-0.42c-0.55-0.49-1.08-1-1.63-1.5c-0.08,0.06-0.17,0.13-0.25,0.19c0.47,0.75,0.87,1.55,1.42,2.23
				c0.93,1.13,1.99,2.16,2.92,3.28c0.7,0.84,1.28,1.77,1.99,2.76c-1.17,0.32-2.09,0.13-2.83-0.48c-0.87-0.72-1.73-1.49-2.41-2.37
				c-1.17-1.5-2.22-3.1-3.3-4.67c-0.97-1.4-1.02-1.42-2.84-0.65c0.34,0.85,0.56,1.78,1.05,2.54c0.92,1.44,2.01,2.78,3.01,4.17
				c0.91,1.26,1.74,2.55,1.84,4.24c-1.37-0.31-2.33-1.15-3.11-2.14c-1.16-1.47-2.24-3-3.22-4.59c-0.89-1.44-1.78-2.81-3.47-3.39
				c-1.05-0.36-1.8-0.17-2.45,0.72c-0.53,0.74-1.02,1.51-1.49,2.29c-0.28,0.47-0.26,0.97,0.19,1.35c1.32,1.12,1.61,2.58,1.37,4.31
				c-0.42-0.55-0.81-1.05-1.34-1.73c-0.17,0.72-0.25,1.25-0.42,1.75c-0.11,0.3-0.39,0.79-0.57,0.78c-0.31-0.02-0.7-0.29-0.89-0.57
				c-0.29-0.43-0.4-0.96-0.64-1.43c-0.15-0.31-0.39-0.57-0.71-1.04c-0.45,0.68-0.82,1.21-1.16,1.76c-0.45,0.73-0.82,1.52-1.34,2.19
				c-0.7,0.9-1.55,0.79-2.1-0.22c-1.09-1.98-1.88-4.06-2.17-6.31c-0.07-0.58,0.11-1.2,0.17-1.8c0.03-0.28,0.04-0.56,0.07-0.95
				c-2.26,1.95-2.4,4.3-0.5,6.63c-0.46,0.89-0.87,1.1-1.79,0.77c-0.62-0.22-1.2-0.57-1.82-0.8c-0.28-0.1-0.68-0.16-0.91-0.03
				c-2.06,1.22-4.37,1.5-6.67,1.8c-0.96,0.12-1.93,0.18-2.88,0.38c-1.4,0.29-2.49,1.12-3.38,2.23c-0.22,0.28-0.46,0.54-0.76,0.89
				c-0.04-0.3-0.07-0.5-0.11-0.78c-0.89,0.48-1.73,0.95-2.58,1.4c-8.96,4.67-18.48,7.59-28.46,9.02
				c-8.97,1.29-17.98,1.41-26.97,0.42c-12.94-1.43-25.13-5.21-36.28-12.06c-0.11-0.07-0.23-0.11-0.39-0.18
				c0.11,0.54,0.22,1.01,0.3,1.49c0.03,0.18,0,0.37,0,0.76c-0.59-0.69-1.1-1.22-1.52-1.82c-0.53-0.75-1.23-1.14-2.13-1.26
				c-2.13-0.3-4.28-0.54-6.39-0.98c-1.25-0.26-2.43-0.87-3.65-1.28c-0.28-0.09-0.64-0.1-0.91-0.01c-0.65,0.23-1.25,0.59-1.89,0.83
				c-0.8,0.3-1.4,0.05-1.76-0.74c1.91-2.63,1.83-4.12-0.49-6.79c0,0.41-0.06,0.68,0.01,0.9c0.53,1.6,0.1,3.13-0.39,4.62
				c-0.41,1.25-0.98,2.46-1.56,3.65c-0.51,1.04-1.47,1.11-2.16,0.15c-0.53-0.73-0.92-1.57-1.4-2.35c-0.3-0.48-0.64-0.93-1.09-1.58
				c-0.37,0.65-0.64,1.08-0.87,1.53c-0.16,0.32-0.2,0.72-0.42,0.98c-0.22,0.27-0.58,0.55-0.9,0.56c-0.18,0.01-0.46-0.47-0.57-0.77
				c-0.17-0.48-0.23-1-0.4-1.76c-0.51,0.66-0.88,1.14-1.26,1.62c-0.47-1.38-0.12-2.85,1.02-3.68c0.69-0.5,0.71-0.99,0.28-1.6
				c-0.61-0.86-1.21-1.72-1.88-2.53c-0.16-0.2-0.56-0.32-0.84-0.3c-2.12,0.14-3.63,1.23-4.56,3.11c-0.97,1.96-2.33,3.62-3.9,5.12
				c-0.64,0.61-1.45,1.05-2.18,1.56c-0.1-0.07-0.21-0.15-0.31-0.22c0.24-0.73,0.35-1.54,0.75-2.18c0.85-1.39,1.86-2.67,2.76-4.03
				c0.7-1.05,1.43-2.11,1.99-3.23c0.55-1.09,0.48-2.25-0.23-3.44c-0.27,0.28-0.53,0.51-0.72,0.78c-1.65,2.29-3.24,4.62-4.94,6.87
				c-0.62,0.82-1.46,1.51-2.28,2.15c-0.71,0.56-1.58,0.72-2.57,0.45c0.59-1.49,1.63-2.59,2.63-3.72c0.95-1.08,1.88-2.17,2.78-3.29
				c0.3-0.37,0.46-0.84,0.68-1.27c-0.07-0.06-0.14-0.12-0.21-0.17c-0.37,0.33-0.76,0.65-1.11,1c-0.87,0.88-1.72,1.48-3.06,0.67
				c-0.41-0.25-1.34-0.02-1.82,0.31c-0.83,0.57-1.51,1.37-2.24,2.08c-0.83,0.81-1.61,1.68-2.84,1.88c-0.54-1.03-0.43-2.25,0.45-3.15
				c1.91-1.98,2.49-4.49,2.97-7.05c0.08-0.45,0.01-0.93-0.16-1.47c-0.22,0.26-0.46,0.51-0.67,0.78c-1.5,1.85-2.94,3.74-4.51,5.52
				c-1.01,1.14-2.3,1.96-4.13,2.29c0.18-0.76,0.31-1.36,0.48-2.08c-0.13-0.14-0.5-0.37-0.59-0.68c-0.12-0.39-0.09-0.87,0.02-1.26
				c0.1-0.33,0.61-0.59,0.61-0.88c0.02-0.72-0.16-1.44-0.27-2.27c-1.74,0.77-2.86,2.56-5.15,1.91c0.53-0.72,0.98-1.34,1.38-1.88
				c-0.39-0.07-0.94-0.08-1.4-0.28c-0.48-0.21-0.88-0.61-1.52-1.09c2.05-0.08,3.28-1.08,4.19-2.51c0.51-0.8,0.86-1.66,0.58-2.91
				c-0.73,0.52-1.42,0.9-1.98,1.42c-0.88,0.83-1.66,1.78-2.52,2.64c-1.14,1.14-2.47,1.85-4.13,1.57c0.51-0.93,1.02-1.86,1.54-2.79
				c-0.1-0.09-0.19-0.18-0.29-0.26c-0.33,0.19-0.68,0.36-0.99,0.57c-0.83,0.57-1.32,0.51-2.05-0.16c-0.39-0.36-0.9-0.6-1.32-0.94
				c-0.26-0.22-0.43-0.53-0.67-0.84c1.68-0.7,3.42-3.59,3.39-5.51c-0.62,0.8-1.16,1.55-1.76,2.26c-0.39,0.46-0.81,0.92-1.29,1.28
				c-0.24,0.18-0.7,0.29-0.96,0.18c-0.19-0.08-0.36-0.58-0.3-0.85c0.18-0.83,0.45-1.64,0.73-2.44c0.1-0.3,0.32-0.55,0.35-0.92
				c-0.23,0.31-0.44,0.63-0.69,0.93c-0.45,0.56-0.88,1.14-1.39,1.64c-0.56,0.56-1.35,0.93-2.03,0.48c-0.68-0.45-1.17-1.2-1.67-1.87
				c-0.1-0.13,0.11-0.51,0.19-0.77c0.24-0.86,0.47-1.72,0.71-2.58c-0.09-0.06-0.17-0.12-0.26-0.18c-1,0.65-2,1.31-3.05,1.99
				c-0.14-2.2,1.89-3.28,2.56-5.08c-0.79-0.27-1.47-0.19-1.94,0.41c-0.54,0.69-0.95,1.48-1.48,2.19c-0.34,0.45-0.73,0.92-1.2,1.19
				c-0.6,0.33-0.89,0.07-0.76-0.61c0.09-0.46,0.26-0.9,0.39-1.35c0.11-0.4,0.28-0.8,0.28-1.2c0-0.26-0.25-0.53-0.39-0.79
				c-0.25,0.2-0.59,0.35-0.73,0.61c-0.16,0.3-0.13,0.7-0.2,1.05c-0.1,0.46-0.22,0.91-0.55,1.45c-0.62-0.91-1.25-1.83-1.93-2.83
				c-0.22,0.1-0.51,0.23-0.79,0.38c-0.55,0.3-1.06,0.71-1.69,0.08c-0.11-0.11-0.68,0.07-0.87,0.27c-0.4,0.41-0.68,0.93-1.07,1.47
				c-1.28-0.74-3.06-0.84-3.08-2.78c-0.55-0.08-1.21,0.02-1.51-0.26c-0.27-0.26-0.14-0.93-0.18-1.45c-0.31-0.05-0.73-0.12-1.26-0.21
				c0.27-0.54,0.49-0.98,0.73-1.44c-0.22-0.31-0.5-0.59-0.64-0.93c-0.28-0.69-0.17-1.37,0.34-1.93c0.53-0.59,1.2-0.64,1.9-0.41
				c0.51,0.17,1.01,0.39,1.67,0.45c-0.44-0.9-0.87-1.79-1.36-2.79c0.71,0.1,1.32,0.19,1.89,0.28c0.1-0.99,0.11-1.91,0.31-2.79
				c0.45-1.9,1.53-3.4,3.07-4.6c3.25-2.52,7.02-3.95,10.87-5.17c6.32-2.01,12.77-2.83,19.4-2.14c0.21,0.02,0.45,0.01,0.64-0.07
				c2.14-0.89,4.28-1.78,6.41-2.7c0.37-0.16,0.68-0.44,0.99-0.77c-1.89-0.5-3.76-0.91-5.58,0.13c-1.08,0.62-2.11,1.32-3.18,1.96
				c-1.06,0.62-2.16,1.17-3.44,0.94c-0.37-0.07-0.7-0.34-1.05-0.53c0.22-0.35,0.37-0.8,0.68-1.02c0.67-0.47,1.42-0.83,2.13-1.29
				c-1.64,0.16-3.31,0.79-4.94-0.42c0.87-0.45,1.72-0.83,2.51-1.31c1.32-0.79,2.66-1.57,3.88-2.49c0.77-0.58,1.17-1.51,1.31-2.69
				c-1.05-0.1-2.05-0.21-3.05-0.3c-0.99-0.08-1.99-0.07-2.97-0.22c-0.99-0.15-1.81-0.64-2.33-1.56c-0.28-0.5-0.28-0.95,0.25-1.18
				c1.16-0.5,2.32-1.04,3.53-1.35c1.98-0.5,4.01-0.77,6-1.23c1.29-0.3,2.52-0.78,3.45-1.9c-1.47,0.23-2.94,0.48-4.42,0.69
				c-2.34,0.33-4.69,0.57-7-0.1c-1.09-0.32-2.12-0.88-3.27-1.38c0.73-0.9,1.5-1.31,2.42-1.25c1.15,0.07,2.3,0.31,3.45,0.41
				c0.6,0.05,1.22-0.04,2.04-0.07c-0.92-1.05-1.83-1.56-2.9-1.81c-0.56-0.13-1.14-0.23-1.7-0.37c-1.69-0.4-2.79-1.63-3.86-2.85
				c-0.52-0.59-0.37-1.32,0.01-1.94c0.36-0.6,0.41-1.11,0.04-1.77c-0.2-0.35-0.16-1.01,0.05-1.38c0.39-0.72,0.97-1.33,1.48-1.99
				c0.58-0.76,1.16-1.53,1.81-2.38c-0.35-0.14-0.53-0.23-0.73-0.29c-0.8-0.23-1.59-0.45-2.4-0.66c-1.21-0.32-1.76-1.05-1.94-2.34
				c-0.15-1.11-0.72-2.17-1.16-3.24c-0.26-0.64-0.68-1.21-0.9-1.86c-0.4-1.18,0.11-1.88,1.35-1.8c1.24,0.09,2.46,0.38,3.69,0.52
				c0.48,0.05,0.98-0.07,1.46-0.11c0.03-0.11,0.05-0.23,0.08-0.34c-0.58-0.45-1.15-0.91-1.73-1.35c-0.7-0.52-0.89-1.15-0.51-1.76
				c0.39-0.61,1.19-0.76,1.91-0.31c0.52,0.32,0.97,0.73,1.49,1.05c0.53,0.32,1.1,0.57,1.65,0.85c0.05-0.08,0.1-0.16,0.16-0.24
				c-0.44-0.4-0.89-0.79-1.32-1.19c-0.61-0.56-1.27-1.09-1.8-1.71c-1.1-1.29-0.81-3.05,0.64-3.93c0.21-0.13,0.68-0.07,0.88,0.09
				c1.5,1.16,3,2.33,4.44,3.57c0.71,0.61,1.16,1.66,1.95,1.98c0.74,0.3,1.76-0.17,2.66-0.2c5.93-0.21,11.35,1.42,16.36,4.51
				c2.32,1.43,4.34,3.23,6.21,5.21c1.03,1.25,2.07,2.5,3.11,3.77c0.58-0.67,1.33-0.73,2.12-0.58c1.06,0.2,2.11,0.45,3.17,0.59
				c0.44,0.06,0.91-0.12,1.48-0.2c-0.95-1.72-2.41-2.09-3.94-2.3c-1.98-0.27-4.05-0.15-5.83-1.33
				C85.89,98.48,85.82,98.54,85.77,98.57z M265.67,136.24c2.26-0.22,4.39-0.43,6.41-0.63c-1.19-0.58-2.46-1.21-3.74-1.83
				c-0.72-0.34-1.45-0.66-2.19-0.97c-0.5-0.21-0.74-0.01-0.7,0.52C265.52,134.3,265.59,135.26,265.67,136.24z M256.16,139.2
				c0.89-0.36,1.75-0.7,2.7-1.08c-0.48-0.56-0.91-1.07-1.44-1.69C257.01,137.46,255.27,137.64,256.16,139.2z M77.31,138.73
				c-0.36-0.12-0.77-0.4-0.98-0.29c-0.82,0.42-1.58,0.97-2.51,1.57c0.81,0.36,1.34,0.6,1.81,0.8
				C76.19,140.11,76.69,139.5,77.31,138.73z M90.05,103.89c-0.04,0.09-0.08,0.18-0.12,0.27c0.25,0.17,0.5,0.47,0.76,0.48
				c0.95,0.06,1.91,0.02,2.87,0.02c0.01-0.13,0.02-0.25,0.02-0.38C92.4,104.16,91.22,104.03,90.05,103.89z M271.82,173.44
				c0.07,1.36,0.92,2.37,2.15,2.78C273.32,175.37,272.63,174.49,271.82,173.44z M58.3,176.12c1.05-0.53,2.01-1.13,1.95-2.52
				C59.6,174.44,58.95,175.28,58.3,176.12z M238.36,110.79c-0.71,0.18-1.37,0.34-2.06,0.51
				C237.14,112.03,237.4,111.97,238.36,110.79z"/>
		</g>
		<g>
			<g>
				<path class="st1" d="M97.6,148.04c-1,0.06-1.85,0.11-2.7,0.17c-7.23,0.45-14.2-0.45-20.82-3.65c-9.9-4.78-20.16-5.43-30.66-2.22
					c-3.39,1.03-6.74,2.17-9.64,4.29c-0.61,0.45-1.23,0.99-1.63,1.62c-1.17,1.85-0.13,4.07,2.03,4.39c2.14,0.32,4.05-0.3,5.23-2.12
					c0.78-1.21,1.61-1.36,2.78-1c0.05,0.02,0.11,0.03,0.16,0.04c7.34,1.64,13.58,5.17,18.58,10.84c1.17,1.32,2.34,2.67,3.63,3.87
					c3.43,3.18,7.63,4.92,12.07,6.13c6.31,1.71,12.75,2.4,19.27,2.52c1.01,0.02,2.02,0,3.11,0
					C95.55,164.78,95.05,156.55,97.6,148.04z M287.52,150.66c0.16,0.28,0.31,0.54,0.46,0.8c0.73,1.31,1.86,2.1,3.31,2.42
					c1.46,0.33,2.99-0.25,3.66-1.35c0.66-1.09,0.51-2.49-0.58-3.65c-0.65-0.69-1.44-1.34-2.29-1.73c-2.08-0.95-4.18-1.92-6.36-2.57
					c-9.36-2.82-18.59-2.58-27.38,1.99c-5.81,3.02-11.9,4.5-18.41,4.42c-0.29,0-0.57,0-0.94,0c1.8,8.14,0.73,15.82-2.86,23.34
					c1.48-0.1,2.82-0.18,4.16-0.28c5.64-0.46,11.17-1.48,16.48-3.5c4.43-1.69,8.15-4.27,11.13-8.04
					C272.92,156.15,279.59,152.36,287.52,150.66z M220.83,125.07c0.59-2.81,1.11-5.52,1.73-8.2c0.89-3.84,1.74-7.71,2.81-11.5
					c1.17-4.14,2.19-8.28,2.35-12.59c0.16-4.36-0.53-8.5-2.73-12.37c-0.99-1.74-1.69-3.67-2.3-5.58c-1.07-3.4-1.61-6.89-1.17-10.47
					c0.16-1.26,0.19-1.24,1.43-1.43c1.09-0.17,1.8-0.8,2.12-1.85c0.32-1.05-0.06-1.91-0.85-2.59c-0.83-0.71-1.76-0.78-2.69-0.23
					c-0.73,0.44-1.48,0.88-2.11,1.45c-6.05,5.47-8.29,12.35-7.4,20.34c0.36,3.26,0.49,6.51-0.2,9.74
					c-1.01,4.75-3.17,8.98-5.79,13.02c-2.37,3.66-4.7,7.36-7.08,11.1C206.81,116.55,214.14,120.08,220.83,125.07z M134.2,114.83
					c-0.21-0.36-0.36-0.59-0.49-0.82c-0.71-1.28-1.57-2.5-2.11-3.85c-1.82-4.59-3.53-9.23-5.29-13.85c-2.09-5.5-2.4-11.07-1.2-16.86
					c1.24-5.98,0.33-11.73-3.06-16.94c-1.33-2.04-2.81-3.99-4.99-5.23c-1.28-0.72-2.71-0.23-3.34,1.1
					c-0.64,1.33-0.14,2.75,1.19,3.32c0.33,0.14,0.68,0.26,1.03,0.3c0.64,0.09,0.83,0.43,0.85,1.06c0.17,5.82-1.41,11.16-4.55,16.02
					c-2.58,3.99-3.73,8.34-3.75,13.03c-0.03,6.61,1.43,12.95,3.58,19.14c1.02,2.92,2.13,5.79,2.2,8.95
					c0.04,1.64,0.27,3.28,0.43,5.08C120.72,120.8,127.17,117.41,134.2,114.83z M110.34,127.3c-2.23-0.67-4.31-1.25-6.35-1.93
					c-3.76-1.25-7.32-2.95-10.65-5.12c-4.07-2.65-6.91-6.33-9.29-10.51c-3.35-5.88-8.28-9.87-15.02-11.33
					c-1.81-0.39-3.65-0.7-5.5-0.29c-1.46,0.32-2.22,1.68-1.78,3.1c0.46,1.45,1.81,2.13,3.21,1.61c0.28-0.11,0.58-0.21,0.82-0.38
					c0.51-0.35,0.85-0.23,1.26,0.21c3.04,3.27,5.06,7.1,6.19,11.39c0.56,2.1,0.8,4.29,1.28,6.42c1.15,5.11,4.18,9.09,7.81,12.67
					c4.69,4.61,10.12,8.2,15.89,11.31c0.18,0.1,0.38,0.17,0.61,0.28c0.14-0.3,0.26-0.55,0.37-0.79c1.39-3.03,3.13-5.84,5.13-8.5
					C106.34,132.74,108.31,130.05,110.34,127.3z M236.43,143.51c6.07-2.74,11.66-6.03,16.27-10.8c2.71-2.81,4.75-5.99,5.71-9.85
					c1.15-4.64,3.33-8.77,6.46-12.37c0.93-1.07,2.05-1.98,3.08-2.97c0.44,0.35,0.72,0.57,1.01,0.78c1.48,1.11,3.48,0.44,3.96-1.33
					c0.42-1.52-0.44-2.75-2.23-3.13c-2.48-0.52-4.95-0.27-7.4,0.23c-6.03,1.23-10.58,4.69-14.16,9.55
					c-2.17,2.94-4.65,5.55-7.79,7.48c-4.27,2.62-8.95,4.15-13.83,5.13c-1.09,0.22-2.18,0.44-3.27,0.66c-0.05,0.1-0.1,0.19-0.16,0.29
					c1,1.09,1.95,2.21,3,3.25C230.9,134.25,234.12,138.5,236.43,143.51z"/>
				<path class="st1" d="M167.36,117.38c13.04,0.15,25.27,2.21,36.83,7.51c7.59,3.47,14.36,8.07,19.79,14.47
					c4.22,4.98,6.87,10.67,7.46,17.22c0.42,4.59-0.5,8.96-2.37,13.16c-2.95,6.6-7.72,11.66-13.46,15.9
					c-7.4,5.46-15.69,9-24.54,11.32c-6.64,1.74-13.4,2.57-20.25,2.76c-10.25,0.29-20.31-0.82-30.12-3.92
					c-8.74-2.76-16.8-6.77-23.78-12.8c-4.89-4.22-8.84-9.17-11.01-15.32c-3-8.47-1.79-16.49,2.86-24.07
					c3.75-6.1,8.99-10.66,14.96-14.46c8.01-5.1,16.8-8.2,26.06-10.06C155.73,117.91,161.73,117.44,167.36,117.38z"/>
			</g>
		</g>
		<g>
			<g>
				<radialGradient id="SVGID_3_" cx="169.6053" cy="178.624" r="30.9263" gradientUnits="userSpaceOnUse">
					<stop  offset="0.8488" style="stop-color:#F15A24"/>
					<stop  offset="1" style="stop-color:#EF3953"/>
				</radialGradient>
				<path class="st4" d="M126.16,173.81c3.42,0.61,6.99,1.34,10.6,1.85c3.19,0.45,6.41,0.82,9.63,0.94
					c8.27,0.32,16.54,0.65,24.82,0.67c6.71,0.02,13.43-0.29,20.14-0.68c6.73-0.39,13.42-1.19,20.01-2.71
					c0.47-0.11,0.95-0.21,1.42-0.32c0.02,0,0.04,0.03,0.27,0.18c-1.89,1.02-3.63,2.07-5.47,2.93c-5.88,2.76-12.11,4.37-18.49,5.45
					c-7.33,1.24-14.72,1.71-22.14,1.52c-10.67-0.27-21.21-1.42-31.35-5.02c-3.08-1.09-6.04-2.42-8.74-4.29
					C126.56,174.13,126.27,173.89,126.16,173.81z"/>
				<radialGradient id="SVGID_4_" cx="133.4064" cy="158.1234" r="6.7591" gradientUnits="userSpaceOnUse">
					<stop  offset="0.8488" style="stop-color:#F15A24"/>
					<stop  offset="1" style="stop-color:#EF3953"/>
				</radialGradient>
				<path class="st5" d="M126.65,158.08c0-3.79,2.95-6.71,6.76-6.71c3.78,0,6.76,2.96,6.76,6.74c0.01,3.76-2.96,6.75-6.74,6.78
					C129.65,164.92,126.65,161.91,126.65,158.08z"/>
				<radialGradient id="SVGID_5_" cx="205.5392" cy="157.3893" r="6.7522" gradientUnits="userSpaceOnUse">
					<stop  offset="0.8488" style="stop-color:#F15A24"/>
					<stop  offset="1" style="stop-color:#EF3953"/>
				</radialGradient>
				<path class="st6" d="M205.55,164.13c-3.78,0.01-6.75-2.94-6.77-6.72c-0.02-3.76,2.96-6.76,6.73-6.77c3.87,0,6.79,2.91,6.79,6.76
					C212.31,161.2,209.36,164.13,205.55,164.13z"/>
			</g>
		</g>
	</g>
	<path class="st7" d="M166.91,108.71c14.59,0.17,28.28,2.61,41.23,8.88c8.49,4.11,16.07,9.54,22.15,17.12
		c4.72,5.88,7.69,12.62,8.35,20.36c0.47,5.43-0.56,10.6-2.66,15.56c-3.3,7.81-8.65,13.79-15.07,18.8
		c-8.28,6.46-17.56,10.64-27.47,13.39c-7.43,2.06-15,3.04-22.66,3.27c-11.48,0.35-22.74-0.97-33.72-4.63
		c-9.78-3.26-18.81-8.01-26.62-15.13c-5.48-4.99-9.89-10.84-12.33-18.11c-3.36-10.01-2.01-19.5,3.21-28.46
		c4.2-7.21,10.07-12.61,16.75-17.1c8.97-6.03,18.81-9.7,29.17-11.89C153.89,109.34,160.61,108.78,166.91,108.71z"/>
	<path class="st1" d="M167.22,116.05c12.92,0.15,25.05,2.27,36.52,7.73c7.52,3.57,14.24,8.3,19.62,14.89
		c4.18,5.12,6.81,10.98,7.39,17.72c0.41,4.73-0.5,9.22-2.35,13.54c-2.92,6.8-7.66,12-13.35,16.36c-7.34,5.62-15.55,9.26-24.32,11.65
		c-6.58,1.79-13.28,2.64-20.07,2.84c-10.16,0.3-20.14-0.84-29.86-4.03c-8.66-2.84-16.66-6.97-23.58-13.17
		c-4.85-4.34-8.76-9.43-10.92-15.76c-2.97-8.71-1.78-16.97,2.84-24.77c3.72-6.28,8.91-10.97,14.83-14.88
		c7.94-5.25,16.65-8.44,25.84-10.35C155.68,116.59,161.63,116.11,167.22,116.05z"/>
	<g>
		<g>
			<path class="st7" d="M126.57,174.1c3.38,0.6,6.92,1.32,10.49,1.83c3.16,0.45,6.34,0.81,9.53,0.93
				c8.18,0.32,16.37,0.64,24.55,0.66c6.64,0.02,13.29-0.28,19.93-0.67c6.66-0.39,13.28-1.18,19.8-2.68
				c0.47-0.11,0.94-0.21,1.41-0.31c0.02,0,0.04,0.03,0.27,0.18c-1.87,1.01-3.59,2.05-5.41,2.9c-5.82,2.73-11.98,4.32-18.3,5.39
				c-7.25,1.23-14.56,1.7-21.9,1.51c-10.55-0.27-20.98-1.41-31.01-4.96c-3.04-1.08-5.98-2.39-8.65-4.25
				C126.97,174.42,126.69,174.19,126.57,174.1z"/>
			<path class="st7" d="M127.05,158.54c0-3.75,2.92-6.64,6.69-6.64c3.74,0,6.68,2.93,6.69,6.67c0.01,3.72-2.93,6.68-6.67,6.71
				C130.02,165.31,127.05,162.33,127.05,158.54z"/>
			<path class="st7" d="M205.12,164.53c-3.74,0.01-6.68-2.91-6.7-6.65c-0.02-3.72,2.93-6.69,6.66-6.69c3.82,0,6.72,2.88,6.72,6.69
				C211.81,161.63,208.9,164.52,205.12,164.53z"/>
		</g>
	</g>
	<g>
		<g>
			<path class="st8" d="M154.17,223.5l10.53,39.09h-6l-1.65-6.18h-9.33l-1.65,6.18h-6l10.53-39.09H154.17z M149.41,250.19h5.97
				l-2.96-12.5L149.41,250.19z"/>
			<path class="st8" d="M189.91,242.33l11.19,20.09l-7.02,0.03l-7.94-13.41l-7.75,13.41h-7.39l11.37-20.12l-10.69-18.7h7.02
				l7.44,12.84l7.28-12.84h7.36L189.91,242.33z"/>
			<path class="st8" d="M207.38,223.89h5.89v32.69h12.1v5.87h-18V223.89z"/>
			<path class="st8" d="M222.44,223.68h25.15v6.08h-9.64v32.69h-5.87v-32.69h-9.64V223.68z"/>
		</g>
		<rect x="74.25" y="269.08" class="st8" width="185.36" height="4.28"/>
		<g>
			<path class="st8" d="M88.2,294.07v-14.8h2.72c2.04,0,3.79,0.72,5.23,2.17c1.44,1.44,2.17,3.19,2.17,5.23
				c0,2.04-0.72,3.78-2.17,5.23c-1.44,1.45-3.19,2.17-5.23,2.17H88.2z M90.45,281.52v10.3h0.47c1.42,0,2.64-0.5,3.65-1.51
				c1.01-1.01,1.51-2.22,1.51-3.64c0-1.43-0.5-2.64-1.51-3.65c-1.01-1.01-2.22-1.51-3.65-1.51H90.45z"/>
			<path class="st8" d="M100.73,279.28h6.86v2.25H103v4.02h4.59v2.25H103v4.02h4.59v2.25h-6.86V279.28z"/>
			<path class="st8" d="M113.29,294.09c-0.64,0-1.21-0.08-1.7-0.24c-0.49-0.16-1.02-0.45-1.58-0.86v-2.76
				c0.35,0.37,0.62,0.62,0.8,0.75c0.19,0.13,0.42,0.27,0.69,0.42c0.27,0.15,0.57,0.27,0.9,0.37c0.33,0.1,0.65,0.15,0.98,0.15
				c0.66,0,1.21-0.23,1.63-0.69c0.42-0.46,0.64-1,0.64-1.63c0-0.52-0.18-0.93-0.54-1.26c-0.36-0.32-0.95-0.69-1.78-1.11
				c-0.49-0.25-0.91-0.48-1.26-0.69c-0.34-0.21-0.67-0.47-0.98-0.77c-0.31-0.31-0.57-0.68-0.76-1.1c-0.2-0.43-0.29-0.93-0.29-1.5
				c0.03-0.56,0.16-1.09,0.41-1.57c0.25-0.49,0.58-0.91,1-1.28c0.42-0.37,0.9-0.65,1.44-0.85c0.54-0.2,1.11-0.3,1.71-0.3
				c0.45,0.01,0.86,0.08,1.23,0.19c0.37,0.11,0.79,0.31,1.26,0.6v2.32c-0.28-0.19-0.47-0.3-0.58-0.35c-0.1-0.04-0.25-0.12-0.44-0.22
				c-0.19-0.1-0.41-0.19-0.66-0.27c-0.25-0.07-0.52-0.11-0.8-0.11c-0.63,0.01-1.16,0.21-1.6,0.6c-0.44,0.39-0.65,0.85-0.65,1.36
				c0.01,0.49,0.2,0.88,0.55,1.17c0.35,0.29,0.92,0.62,1.71,0.98c0.54,0.26,0.97,0.48,1.31,0.67c0.34,0.19,0.67,0.45,1,0.75
				c0.33,0.31,0.59,0.7,0.8,1.17c0.2,0.47,0.31,1.02,0.32,1.67c0,0.59-0.12,1.15-0.37,1.68c-0.25,0.53-0.59,1-1.04,1.41
				s-0.95,0.73-1.52,0.96S113.91,294.09,113.29,294.09z"/>
			<path class="st8" d="M125.3,279.13l4.04,15h-2.3l-0.63-2.37h-3.58l-0.63,2.37h-2.3l4.04-15H125.3z M123.47,289.37h2.29
				l-1.14-4.79L123.47,289.37z"/>
			<path class="st8" d="M134.01,289.94v4.11h-2.25v-14.8h2.25v0.01c0.13-0.01,0.27-0.01,0.4-0.01c1.4,0,2.6,0.52,3.58,1.57
				c0.99,1.05,1.48,2.31,1.48,3.78c0,1.48-0.49,2.74-1.48,3.79c-0.25,0.26-0.5,0.49-0.77,0.68l2.68,5.02h-2.41l-2.23-4.2
				c-0.27,0.05-0.56,0.07-0.85,0.07C134.28,289.96,134.14,289.96,134.01,289.94z M134.01,281.48v6.25c0.13,0.02,0.26,0.03,0.4,0.03
				c0.83,0,1.53-0.31,2.11-0.92c0.58-0.62,0.87-1.36,0.87-2.23c0-0.87-0.29-1.61-0.87-2.23c-0.58-0.61-1.28-0.92-2.11-0.92
				C134.28,281.46,134.14,281.46,134.01,281.48z"/>
			<path class="st8" d="M144.56,289.94v4.11h-2.25v-14.8h2.25v0.01c0.13-0.01,0.27-0.01,0.4-0.01c1.4,0,2.6,0.52,3.58,1.57
				c0.99,1.05,1.48,2.31,1.48,3.78c0,1.48-0.49,2.74-1.48,3.79c-0.25,0.26-0.5,0.49-0.77,0.68l2.68,5.02h-2.41l-2.23-4.2
				c-0.27,0.05-0.56,0.07-0.85,0.07C144.83,289.96,144.7,289.96,144.56,289.94z M144.56,281.48v6.25c0.13,0.02,0.26,0.03,0.4,0.03
				c0.83,0,1.53-0.31,2.11-0.92c0.58-0.62,0.87-1.36,0.87-2.23c0-0.87-0.29-1.61-0.87-2.23c-0.58-0.61-1.28-0.92-2.11-0.92
				C144.83,281.46,144.7,281.46,144.56,281.48z"/>
			<path class="st8" d="M168.08,286.63c0,1.03-0.2,2-0.6,2.9c-0.4,0.9-0.94,1.69-1.64,2.36c-0.69,0.67-1.49,1.2-2.41,1.59
				c-0.92,0.39-1.9,0.59-2.95,0.59c-1.06,0-2.05-0.2-2.97-0.59c-0.92-0.39-1.72-0.92-2.41-1.59c-0.69-0.67-1.24-1.46-1.64-2.36
				s-0.6-1.87-0.6-2.9c0-1.02,0.2-1.99,0.6-2.91s0.94-1.71,1.64-2.38c0.69-0.67,1.49-1.2,2.41-1.59c0.92-0.39,1.91-0.58,2.97-0.58
				c1.05,0,2.04,0.19,2.95,0.58c0.92,0.39,1.72,0.92,2.41,1.59c0.69,0.67,1.24,1.46,1.64,2.38
				C167.88,284.64,168.08,285.61,168.08,286.63z M155.3,286.63c0,0.72,0.13,1.39,0.4,2.02c0.27,0.63,0.64,1.17,1.1,1.64
				c0.47,0.46,1.02,0.83,1.65,1.1c0.63,0.26,1.3,0.4,2.02,0.4c0.71,0,1.38-0.13,2.01-0.4c0.63-0.26,1.18-0.63,1.64-1.1
				c0.46-0.47,0.83-1.01,1.1-1.64c0.27-0.63,0.4-1.3,0.4-2.02c0-0.72-0.13-1.39-0.4-2.01c-0.27-0.63-0.64-1.17-1.1-1.64
				c-0.46-0.46-1.01-0.83-1.64-1.09c-0.63-0.26-1.3-0.39-2.01-0.39c-0.72,0-1.39,0.13-2.02,0.39c-0.63,0.26-1.18,0.63-1.65,1.09
				c-0.47,0.47-0.84,1.01-1.1,1.64C155.44,285.25,155.3,285.92,155.3,286.63z"/>
			<path class="st8" d="M170.49,279.28h2.26v12.55h4.64v2.25h-6.91V279.28z"/>
			<path class="st8" d="M179.81,279.28h2.26v12.55h4.64v2.25h-6.91V279.28z"/>
			<path class="st8" d="M202.38,286.63c0,1.03-0.2,2-0.6,2.9c-0.4,0.9-0.94,1.69-1.64,2.36c-0.69,0.67-1.49,1.2-2.41,1.59
				c-0.92,0.39-1.9,0.59-2.95,0.59c-1.06,0-2.05-0.2-2.97-0.59c-0.92-0.39-1.72-0.92-2.41-1.59c-0.69-0.67-1.24-1.46-1.64-2.36
				s-0.6-1.87-0.6-2.9c0-1.02,0.2-1.99,0.6-2.91s0.94-1.71,1.64-2.38c0.69-0.67,1.49-1.2,2.41-1.59c0.92-0.39,1.91-0.58,2.97-0.58
				c1.05,0,2.04,0.19,2.95,0.58c0.92,0.39,1.72,0.92,2.41,1.59c0.69,0.67,1.24,1.46,1.64,2.38
				C202.18,284.64,202.38,285.61,202.38,286.63z M189.6,286.63c0,0.72,0.13,1.39,0.4,2.02c0.27,0.63,0.64,1.17,1.1,1.64
				c0.47,0.46,1.02,0.83,1.65,1.1c0.63,0.26,1.3,0.4,2.02,0.4c0.71,0,1.38-0.13,2.01-0.4c0.63-0.26,1.18-0.63,1.64-1.1
				c0.46-0.47,0.83-1.01,1.1-1.64c0.27-0.63,0.4-1.3,0.4-2.02c0-0.72-0.13-1.39-0.4-2.01c-0.27-0.63-0.64-1.17-1.1-1.64
				c-0.46-0.46-1.01-0.83-1.64-1.09c-0.63-0.26-1.3-0.39-2.01-0.39c-0.72,0-1.39,0.13-2.02,0.39c-0.63,0.26-1.18,0.63-1.65,1.09
				c-0.47,0.47-0.84,1.01-1.1,1.64C189.73,285.25,189.6,285.92,189.6,286.63z"/>
			<path class="st8" d="M215.7,294.07l-4.04-14.37h2.35l2.23,7.97l2.54-7.85l0.04-0.12l0.16,0.05l0.16-0.05l0.04,0.12l2.54,7.86
				l2.23-7.98h2.35l-4.04,14.37h-0.84l-2.45-7.55l-2.45,7.55H215.7z"/>
			<path class="st8" d="M228.73,279.28h6.86v2.25h-4.59v4.02h4.59v2.25h-4.59v4.02h4.59v2.25h-6.86V279.28z"/>
			<path class="st8" d="M238,294.07v-14.8h3.43c0.94,0,1.75,0.33,2.41,0.99c0.66,0.66,0.99,1.46,0.99,2.4
				c0,0.92-0.32,1.72-0.95,2.37c0.68,0.21,1.3,0.6,1.86,1.15c0.9,0.9,1.35,1.99,1.35,3.27c0,1.27-0.45,2.36-1.35,3.26
				c-0.9,0.9-1.99,1.35-3.26,1.35H238z M240.25,284.05h1.18c0.32,0,0.59-0.12,0.82-0.37c0.23-0.24,0.34-0.55,0.34-0.9
				c0-0.35-0.11-0.65-0.34-0.89c-0.22-0.24-0.5-0.37-0.82-0.37h-1.18V284.05z M240.25,286.81v3.39v1.63h2.22
				c0.65,0,1.21-0.25,1.67-0.74c0.46-0.49,0.69-1.08,0.69-1.77c0-0.68-0.23-1.27-0.69-1.76c-0.46-0.49-1.02-0.74-1.67-0.74H240.25z"
				/>
		</g>
		<g>
			<g>
				<path class="st8" d="M85.78,241.27c0.1-0.55,0.21-1.09,0.29-1.64c0.64-4.27,2.65-7.78,5.93-10.56c2.48-2.11,5.34-3.39,8.58-3.8
					c0.72-0.09,1.45-0.2,2.18-0.2c3.12,0.01,5.95,0.94,8.47,2.77c2.38,1.73,4.08,4.02,5.37,6.64c0.1,0.2,0.19,0.39,0.31,0.62
					c0.22-0.13,0.42-0.25,0.62-0.37c3.57-2.12,7.31-3.82,11.38-4.73c2.48-0.56,4.99-0.77,7.52-0.52c2.87,0.29,5.53,1.19,7.9,2.89
					c0.33,0.24,0.29,0.51,0.28,0.82c0,0.05-0.07,0.13-0.12,0.15c-0.25,0.07-0.52,0.18-0.77,0.17c-3.16-0.11-5.95,0.87-8.37,2.9
					c-1.48,1.24-2.64,2.75-3.79,4.27c-2.52,3.31-4.76,6.81-7.08,10.26c-2.07,3.08-4.57,5.76-7.7,7.8c-2.69,1.75-5.62,2.86-8.77,3.41
					c-1.4,0.24-2.81,0.38-4.23,0.35c-3.47-0.08-6.62-1.14-9.35-3.27c-4.42-3.43-7.24-7.87-8.24-13.42
					c-0.12-0.68-0.15-1.39-0.24-2.08c-0.03-0.2-0.1-0.4-0.15-0.59C85.78,242.53,85.78,241.9,85.78,241.27z M136.83,232.25
					c0,0-0.04-0.02-0.08-0.03c-0.08-0.01-0.16-0.03-0.24-0.03c-1.58-0.08-3.13,0.14-4.67,0.5c-5.01,1.15-9.62,3.28-14.09,5.75
					c-0.12,0.07-0.23,0.26-0.25,0.41c-0.11,0.79-0.17,1.59-0.29,2.39c-0.42,2.92-1.73,5.37-4,7.26c-3.07,2.55-6.58,3.4-10.48,2.41
					c-0.79-0.2-1.51-0.56-2.02-1.23c-0.7-0.91-0.36-1.93,0.74-2.23c0.72-0.19,1.43-0.1,2.13,0.09c1.1,0.3,2.2,0.32,3.31,0.07
					c3.99-0.89,7.09-4.54,6.4-9.42c-0.45-3.17-2.08-5.61-4.78-7.33c-2.34-1.49-4.9-1.88-7.6-1.36c-4.99,0.96-8.41,3.85-10.19,8.59
					c-1.11,2.95-0.9,5.97-0.1,8.96c0.95,3.52,2.93,6.42,5.65,8.8c2.53,2.22,5.52,3.27,8.88,3.17c2.44-0.07,4.79-0.61,7.06-1.5
					c4.98-1.97,8.48-5.67,11.29-10.05c1.94-3.03,3.78-6.12,6.04-8.93c1.47-1.83,3.04-3.56,4.98-4.92
					C135.27,233.12,136.07,232.7,136.83,232.25z"/>
			</g>
		</g>
	</g>
</g>
</svg>

