<!-- Generator: Adobe Illustrator 24.1.0, SVG Export Plug-In  -->
<svg version="1.1" xmlns="http://www.w3.org/2000/svg" xmlns:xlink="http://www.w3.org/1999/xlink" x="0px" y="0px"
	 width="288.69px" height="288.69px" viewBox="0 0 288.69 288.69" style="enable-background:new 0 0 288.69 288.69;"
	 xml:space="preserve">
<style type="text/css">
	.st0{fill:url(#SVGID_1_);}
	.st1{fill:#020202;}
	.st2{fill:url(#SVGID_2_);}
	.st3{fill:url(#SVGID_3_);}
	.st4{fill:url(#SVGID_4_);}
	.st5{fill:url(#SVGID_5_);}
	.st6{fill:url(#SVGID_6_);}
	.st7{fill:url(#SVGID_7_);}
	.st8{fill:url(#SVGID_8_);}
	.st9{fill:url(#SVGID_9_);}
	.st10{fill:url(#SVGID_10_);}
	.st11{fill:url(#SVGID_11_);}
	.st12{fill:url(#SVGID_12_);}
	.st13{fill:url(#SVGID_13_);}
	.st14{fill:url(#SVGID_14_);}
	.st15{fill:url(#SVGID_15_);}
	.st16{fill:url(#SVGID_16_);}
	.st17{fill:url(#SVGID_17_);}
	.st18{fill:url(#SVGID_18_);}
	.st19{fill:url(#SVGID_19_);}
	.st20{fill:url(#SVGID_20_);}
	.st21{fill:url(#SVGID_21_);}
	.st22{fill:url(#SVGID_22_);}
	.st23{fill:url(#SVGID_23_);}
	.st24{fill:url(#SVGID_24_);}
	.st25{fill:url(#SVGID_25_);}
	.st26{fill:url(#SVGID_26_);}
	.st27{fill:url(#SVGID_27_);}
	.st28{fill:url(#SVGID_28_);}
	.st29{fill:url(#SVGID_29_);}
	.st30{fill:url(#SVGID_30_);}
	.st31{fill:url(#SVGID_31_);}
	.st32{fill:url(#SVGID_32_);}
	.st33{fill:url(#SVGID_33_);}
	.st34{fill:url(#SVGID_34_);}
	.st35{fill:url(#SVGID_35_);}
	.st36{fill:url(#SVGID_36_);}
	.st37{fill:url(#SVGID_37_);}
	.st38{fill:url(#SVGID_38_);}
	.st39{fill:url(#SVGID_39_);}
	.st40{fill:url(#SVGID_40_);}
	.st41{fill:url(#SVGID_41_);}
	.st42{fill:url(#SVGID_42_);}
	.st43{fill:url(#SVGID_43_);}
	.st44{fill:url(#SVGID_44_);}
	.st45{fill:url(#SVGID_45_);}
	.st46{fill:url(#SVGID_46_);}
	.st47{fill:url(#SVGID_47_);}
	.st48{fill:url(#SVGID_48_);}
	.st49{fill:url(#SVGID_49_);}
	.st50{fill:url(#SVGID_50_);}
</style>
<defs>
</defs>
<g>
	<g>
		<linearGradient id="SVGID_1_" gradientUnits="userSpaceOnUse" x1="0" y1="144.3475" x2="288.695" y2="144.3475">
			<stop  offset="0" style="stop-color:#03FF00"/>
			<stop  offset="0.4232" style="stop-color:#00FFFF"/>
			<stop  offset="0.753" style="stop-color:#9C00B2"/>
			<stop  offset="0.9426" style="stop-color:#FF0082"/>
		</linearGradient>
		<circle class="st0" cx="144.35" cy="144.35" r="144.35"/>
		<circle class="st1" cx="144.35" cy="144.77" r="134.67"/>
	</g>
	<g>
		<g>
			<linearGradient id="SVGID_2_" gradientUnits="userSpaceOnUse" x1="23.3506" y1="103.5442" x2="264.4156" y2="103.5442">
				<stop  offset="0" style="stop-color:#03FF00"/>
				<stop  offset="0.4232" style="stop-color:#00FFFF"/>
				<stop  offset="0.753" style="stop-color:#9C00B2"/>
				<stop  offset="0.9426" style="stop-color:#FF0082"/>
			</linearGradient>
			<path class="st2" d="M264.35,133.69c-0.24-0.49-0.42-0.88-0.61-1.25c0.74-0.82,0.86-1.51,0.38-2.18c-0.46-0.65-1.1-0.74-2.1-0.32
				c-0.29,0.12-0.59,0.2-1.07,0.36c0.45-0.92,0.81-1.67,1.19-2.46c-2.46,0.26-2.68,0.22-3.23-0.44c0.08-0.66,0.36-1.33,0.14-1.6
				c-0.49-0.62-1.2-0.16-1.79,0.08c-1.65-3.29-2.9-4.71-5.62-6.13c-4.32-2.25-8.91-3.64-13.75-4.2c-0.99-0.11-1.98-0.19-3.04-0.29
				c0.26-0.2,0.44-0.33,0.74-0.56c-0.41-0.32-0.73-0.67-1.12-0.85c-1.1-0.53-2.23-0.99-3.36-1.47c-1.91-0.81-3.82-1.61-5.72-2.44
				c-0.18-0.08-0.31-0.29-0.46-0.45c0.19-0.14,0.37-0.36,0.58-0.4c1.66-0.3,3.25-0.19,4.68,0.85c0.78,0.57,1.63,1.05,2.48,1.51
				c0.74,0.4,1.55,0.63,2.4,0.4c0.24-0.07,0.61-0.25,0.63-0.41c0.03-0.23-0.16-0.58-0.36-0.73c-0.46-0.34-0.99-0.58-1.49-0.87
				c-0.16-0.09-0.3-0.19-0.46-0.29c1.39,0.12,2.76,0.62,4.13-0.38c-0.66-0.34-1.28-0.64-1.87-0.98c-1.08-0.62-2.18-1.2-3.19-1.91
				c-0.78-0.56-1.22-1.41-1.36-2.41c0.16-0.06,0.26-0.12,0.37-0.13c1.15-0.09,2.3-0.13,3.44-0.28c0.74-0.09,1.54-0.2,2.18-0.54
				c0.49-0.26,0.9-0.87,1.07-1.4c0.06-0.19-0.66-0.79-1.11-0.94c-1.2-0.4-2.43-0.69-3.67-0.97c-1.31-0.3-2.64-0.53-3.98-0.8
				c0.24-0.72,0.63-0.95,1.25-0.89c0.99,0.09,1.98,0.15,2.97,0.18c2.01,0.06,3.9-0.31,5.53-1.6c-0.68-0.87-1.63-0.98-2.66-0.94
				c0.48-0.65,0.87-1.24,1.33-1.78c0.47-0.56,0.98-1.09,1.5-1.61c0.51-0.51,0.87-1.08,0.53-1.79c-0.34-0.7-0.6-1.31-0.05-2.05
				c0.13-0.18-0.01-0.63-0.13-0.91c-0.16-0.35-0.44-0.64-0.66-0.97c-0.6-0.92-1.19-1.84-1.81-2.8c0.95-0.29,1.83-0.55,2.7-0.83
				c0.64-0.21,1.09-0.61,1.13-1.33c0.07-1.31,0.62-2.44,1.27-3.55c0.29-0.49,0.51-1.04,0.62-1.59c0.13-0.64-0.2-1.02-0.85-1.09
				c-0.32-0.04-0.65-0.01-0.96,0.04c-0.84,0.12-1.68,0.3-2.53,0.4c-0.37,0.04-0.77-0.07-1.15-0.12c-0.02-0.09-0.04-0.18-0.07-0.28
				c0.48-0.37,0.96-0.75,1.45-1.12c0.58-0.43,0.74-0.97,0.42-1.47c-0.32-0.5-1-0.63-1.6-0.26c-0.47,0.29-0.89,0.67-1.36,0.95
				c-0.4,0.24-0.85,0.4-1.28,0.6c-0.03-0.06-0.06-0.12-0.09-0.18c0.8-0.73,1.63-1.42,2.39-2.19c1.05-1.06,1-2.14-0.01-3.23
				c-0.36-0.39-0.66-0.44-1.13-0.19c-1.63,0.88-2.94,2.15-4.15,3.52c-1.74,1.98-3.52,3.91-5.57,5.58c-0.94,0.77-1.78,1.68-2.6,2.59
				c-0.51,0.57-1.06,0.92-1.82,1.11c-6.25,1.52-11.03,5.18-14.84,10.25c-0.73,0.97-1.53,1.89-2.22,2.74c-1.27-1-2.77-0.56-4.01-1.13
				c0.41-0.13,0.82-0.2,1.23-0.2c0.71-0.01,1.43,0.07,2.13,0.01c0.28-0.02,0.77-0.37,0.75-0.49c-0.07-0.39-0.25-0.89-0.55-1.08
				c-0.35-0.23-0.88-0.24-1.33-0.23c-0.85,0.01-1.69,0.1-2.62,0.17c0.1-0.35,0.2-0.58,0.23-0.83c0.08-0.76,0.59-0.98,1.25-0.98
				c0.85-0.01,1.71,0.01,2.56,0.02c1.15,0.02,2.3,0.1,3.41-0.59c-0.23-0.27-0.4-0.57-0.65-0.74c-0.83-0.58-1.68-1.12-2.54-1.66
				c-0.86-0.54-1.07-0.49-0.6-1.47c0.07-0.14,0.08-0.31,0.09-0.47c0.06-0.66-0.11-0.86-0.76-0.79c-0.36,0.04-0.72,0.19-1.08,0.3
				c-0.11-0.6,0.18-0.76,0.7-0.7c0.57,0.07,1.14,0.16,1.72,0.2c1.26,0.08,2.52,0.2,3.78,0.19c0.67-0.01,1.19-0.43,1.47-1.31
				c-0.85-0.16-1.65-0.3-2.45-0.47c-0.56-0.12-1.13-0.22-1.66-0.42c-0.19-0.07-0.27-0.42-0.4-0.64c0.23-0.06,0.46-0.18,0.68-0.18
				c0.39,0.01,0.78,0.15,1.16,0.12c0.31-0.03,0.77-0.17,0.87-0.39c0.12-0.26,0.03-0.74-0.15-1c-0.42-0.63-0.97-1.18-1.42-1.79
				c-0.61-0.83-1.36-1.2-2.4-0.9c-0.26,0.08-0.55,0.07-0.83,0.06c-0.16-0.01-0.32-0.1-0.48-0.16c0.13-0.13,0.25-0.28,0.4-0.37
				c0.16-0.09,0.36-0.09,0.52-0.17c0.75-0.34,1.58-0.57,2.22-1.06c1.28-0.98,1.1-3.57-0.47-4.04c-0.26,0.36-0.55,0.75-0.82,1.14
				c-0.38,0.55-0.73,1.12-1.15,1.64c-0.17,0.21-0.49,0.3-0.84,0.5c-0.05-0.55-0.08-0.92-0.11-1.27c0.83-0.34,0.93-0.62,0.47-1.36
				c-0.23-0.37-0.49-0.71-0.77-1.1c0.42-0.21,0.81-0.35,1.15-0.58c0.8-0.54,1.65-1.03,2.33-1.69c0.86-0.84,0.99-1.96,0.43-3.01
				c-0.39-0.73-0.37-1.38-0.21-2.12c0.11-0.49,0.12-1.01,0.17-1.54c-0.75,0-1.35,0.04-1.94-0.01c-0.57-0.05-0.67-0.44-0.31-0.81
				c0.56-0.57,1.16-1.13,1.83-1.56c1.28-0.83,1.42-1.12,0.89-2.53c-0.47-1.24-0.19-2.15,0.95-2.83c0.55-0.33,1.18-0.55,1.71-0.91
				c0.56-0.38,1.09-0.84,1.55-1.34c0.16-0.18,0.21-0.65,0.09-0.86c-0.12-0.22-0.5-0.4-0.78-0.41c-0.38-0.02-0.78,0.08-1.15,0.2
				c-0.64,0.2-1.24,0.5-1.88,0.68c-0.3,0.09-0.65,0-0.97-0.01c-0.02-0.09-0.03-0.19-0.05-0.28c0.36-0.22,0.71-0.47,1.09-0.65
				c0.79-0.37,1.65-0.62,2.39-1.08c0.61-0.37,1.14-0.92,1.59-1.48c0.35-0.43,0.24-0.95-0.31-1.21c-0.59-0.28-0.55-0.62-0.16-1
				c0.82-0.81,1.64-1.62,2.49-2.4c0.58-0.52,0.92-1.11,0.8-1.88c-0.15-1.05-0.7-1.87-1.5-2.57c-0.51,0.57-0.99,1.11-1.49,1.67
				c-0.54-0.85-0.95-1.62-1.47-2.31c-0.71-0.95-1.19-0.81-1.95,0.14c-0.24,0.3-0.36,0.69-0.54,1.04c-0.13,0.26-0.26,0.52-0.46,0.94
				c-0.43-0.69-0.77-1.25-1.14-1.84c-0.51,0.49-1.07,0.4-1.68,0.19c-0.65-0.22-1.28-0.33-1.68,0.51c-0.15,0.32-0.55,0.56-0.89,0.74
				c-1.61,0.87-3.34,1.21-5.15,0.99c-1.09-0.13-2.07-0.52-2.51-1.67c-0.44-1.13-1.18-1.38-2.04-0.52c-0.87,0.87-1.68,1.86-2.29,2.92
				c-0.64,1.11-1.34,2.05-2.53,2.58c-0.33,0.15-0.62,0.4-0.91,0.63c-6.24,5.11-9.41,11.72-9.49,19.77c-0.02,2.05,0.27,4.1,0.39,6.15
				c0.18,3.27-0.73,6.31-2.36,9.05c-2.86,4.8-5.9,9.48-8.89,14.2c-0.1,0.16-0.47,0.26-0.68,0.22c-2.13-0.4-4.24-0.91-6.38-1.25
				c-5.32-0.85-10.68-1.26-16.07-1.11c-4.88,0.14-9.72,0.59-14.5,1.58c-1.96,0.41-3.9,0.89-5.77,1.32
				c-0.89-1.63-1.84-3.21-2.65-4.85c-2.18-4.39-3.68-9.05-5.13-13.72c-0.7-2.24-0.74-4.52-0.33-6.85c0.34-1.9,0.65-3.83,0.72-5.76
				c0.28-7.5-2.22-13.94-7.56-19.25c-0.44-0.44-0.81-0.98-1.14-1.52c-0.58-0.95-1.38-1.44-2.49-1.49c-1.02-0.05-2.05-0.13-3.06-0.28
				c-0.3-0.04-0.79-0.34-0.79-0.52c-0.01-0.91-0.65-1.04-1.29-1.17c-0.95-0.19-1.91-0.33-2.86-0.5c-0.47-0.08-0.81-0.24-0.77-0.84
				c0.01-0.2-0.24-0.5-0.45-0.62c-0.33-0.19-0.72-0.29-1.1-0.38c-1.01-0.23-2.03-0.41-3.04-0.67c-0.33-0.09-0.79-0.31-0.89-0.58
				c-0.29-0.85-0.92-0.77-1.52-0.65c-0.66,0.13-1.22,0.09-1.7-0.4c-0.45,0.54-0.86,1.03-1.37,1.65c-0.14-0.45-0.22-0.71-0.31-0.97
				c-0.16-0.45-0.26-0.96-0.52-1.35c-0.59-0.89-0.97-0.95-1.65-0.32c-0.42,0.39-0.79,0.83-1.17,1.27c-0.23,0.27-0.42,0.58-0.71,0.99
				c-0.47-0.71-0.87-1.31-1.34-2c-0.45,0.48-0.92,0.89-1.28,1.38c-0.84,1.15-0.74,2.1,0.18,3.18c0.7,0.83,1.35,1.69,1.99,2.56
				c0.28,0.38,0.35,0.72-0.26,0.94c-0.64,0.23-0.84,0.67-0.48,1.26c0.39,0.63,0.89,1.23,1.46,1.69c0.7,0.56,1.53,0.95,2.28,1.44
				c0.3,0.19,0.54,0.46,0.81,0.69c-0.04,0.09-0.07,0.18-0.11,0.27c-0.35-0.06-0.73-0.04-1.05-0.18c-0.67-0.3-1.29-0.73-1.96-1.03
				c-0.55-0.25-1.22-0.61-1.69,0.07c-0.47,0.67,0.06,1.22,0.49,1.63c0.64,0.62,1.37,1.16,2.12,1.66c1.25,0.85,1.58,2.13,0.76,3.4
				c-0.66,1.01-0.47,1.49,0.47,2.3c0.64,0.55,1.22,1.19,1.72,1.87c0.38,0.51,0.17,0.84-0.47,0.82c-0.59-0.02-1.18-0.14-1.88-0.23
				c0,0.6,0.04,1.19-0.01,1.77c-0.05,0.51-0.06,1.1-0.32,1.5c-0.88,1.35-0.91,2.67,0.18,3.86c0.59,0.64,1.32,1.14,2,1.69
				c0.24,0.19,0.51,0.35,0.87,0.59c-0.29,0.24-0.49,0.4-0.67,0.58c-0.18,0.18-0.35,0.37-0.49,0.58c-0.4,0.62-0.22,1.03,0.51,1.08
				c0.54,0.04,1.08,0.01,1.62,0.01c-0.18,0.27-0.39,0.39-0.6,0.51c-0.22,0.13-0.44,0.26-0.65,0.4c-0.74,0.49-1.22,0.41-1.65-0.38
				c-0.37-0.66-0.64-1.38-0.98-2.06c-0.44-0.9-0.85-0.94-1.49-0.16c-0.92,1.1-0.68,2.98,0.57,3.87c0.56,0.4,1.22,0.64,1.83,0.97
				c0.33,0.17,0.65,0.36,0.97,0.55c-0.03,0.07-0.06,0.14-0.09,0.21c-0.69-0.15-1.39-0.26-2.06-0.46c-0.64-0.19-1.18-0.1-1.67,0.34
				c-0.65,0.59-1.34,1.14-1.94,1.78c-0.25,0.27-0.53,0.8-0.43,1.04c0.13,0.31,0.63,0.53,1.01,0.64c0.36,0.1,0.78-0.03,1.17,0
				c0.15,0.01,0.39,0.14,0.43,0.26c0.04,0.12-0.08,0.36-0.21,0.45c-0.2,0.14-0.45,0.27-0.69,0.28c-0.62,0.04-1.25,0-1.87,0.03
				c-0.62,0.03-1.25,0.12-1.9,0.19c0.2,0.88,0.68,1.3,1.34,1.48c0.53,0.15,1.08,0.23,1.63,0.26c1.43,0.07,2.86,0.05,4.29,0.17
				c1.16,0.1,2.3,0.41,2.94,1.53c0.14,0.25,0.22,0.69,0.08,0.88c-0.14,0.2-0.57,0.3-0.86,0.27c-0.81-0.08-1.37-0.53-1.77-1.27
				c-0.22-0.42-0.59-0.85-1.01-1.07c-0.82-0.43-1.23-0.09-1.16,0.82c0.1,1.28,0.1,1.28-1.14,1.75c-0.54,0.21-1.11,0.37-1.59,0.68
				c-0.57,0.36-1.07,0.85-1.6,1.28c0,0,0,0,0,0c-1.56-1.65-3.25-3.15-5.18-4.35c-4.19-2.58-8.71-3.95-13.66-3.77
				c-0.75,0.03-1.6,0.42-2.22,0.17c-0.66-0.27-1.04-1.15-1.63-1.66c-1.2-1.03-2.45-2.01-3.71-2.98c-0.17-0.13-0.56-0.18-0.74-0.08
				c-1.21,0.74-1.45,2.21-0.53,3.28c0.45,0.52,0.99,0.96,1.5,1.43c0.36,0.34,0.74,0.66,1.1,0.99c-0.04,0.07-0.09,0.13-0.13,0.2
				c-0.46-0.23-0.94-0.44-1.38-0.71c-0.43-0.26-0.82-0.61-1.25-0.87c-0.6-0.37-1.27-0.25-1.59,0.26c-0.32,0.51-0.16,1.03,0.42,1.47
				c0.49,0.36,0.97,0.75,1.45,1.12c-0.02,0.09-0.04,0.19-0.06,0.28c-0.41,0.04-0.82,0.14-1.22,0.1c-1.03-0.11-2.05-0.36-3.08-0.43
				c-1.04-0.07-1.46,0.51-1.13,1.5c0.18,0.54,0.53,1.02,0.75,1.55c0.36,0.89,0.84,1.78,0.96,2.71c0.15,1.08,0.61,1.69,1.62,1.96
				c0.67,0.18,1.33,0.36,2,0.55c0.16,0.05,0.32,0.12,0.61,0.24c-0.54,0.71-1.02,1.35-1.51,1.99c-0.42,0.55-0.91,1.06-1.23,1.66
				c-0.17,0.31-0.2,0.86-0.04,1.15c0.31,0.55,0.27,0.97-0.03,1.48c-0.32,0.52-0.44,1.13-0.01,1.62c0.89,1.02,1.81,2.05,3.22,2.38
				c0.47,0.11,0.95,0.19,1.42,0.31c0.89,0.21,1.66,0.63,2.42,1.51c-0.69,0.03-1.2,0.11-1.7,0.06c-0.96-0.08-1.92-0.28-2.88-0.34
				c-0.77-0.05-1.41,0.3-2.02,1.05c0.96,0.41,1.82,0.89,2.73,1.15c1.92,0.56,3.89,0.35,5.84,0.08c1.23-0.17,2.46-0.38,3.69-0.57
				c-0.77,0.94-1.8,1.34-2.88,1.59c-1.66,0.38-3.36,0.61-5.01,1.03c-1.01,0.25-1.98,0.71-2.95,1.12c-0.44,0.19-0.45,0.57-0.21,0.98
				c0.43,0.77,1.12,1.18,1.94,1.3c0.82,0.12,1.65,0.11,2.48,0.18c0.84,0.07,1.67,0.16,2.54,0.25c-0.12,0.99-0.45,1.76-1.09,2.25
				c-1.02,0.77-2.14,1.42-3.24,2.08c-0.66,0.4-1.37,0.72-2.1,1.09c1.37,1.01,2.75,0.48,4.13,0.35c-0.59,0.39-1.22,0.68-1.78,1.08
				c-0.26,0.18-0.38,0.56-0.56,0.85c0.29,0.15,0.57,0.38,0.88,0.44c1.07,0.19,1.99-0.26,2.87-0.79c0.89-0.53,1.75-1.12,2.65-1.63
				c1.52-0.87,3.08-0.52,4.66-0.11c-0.26,0.27-0.52,0.51-0.83,0.64c-1.78,0.77-3.56,1.51-5.35,2.25c-0.16,0.07-0.36,0.07-0.54,0.06
				c-5.53-0.58-10.92,0.11-16.19,1.79c-3.22,1.02-6.37,2.21-9.08,4.32c-1.28,1-2.19,2.25-2.56,3.84c-0.17,0.73-0.17,1.5-0.26,2.33
				c-0.48-0.07-0.99-0.14-1.58-0.23c0.41,0.83,0.77,1.58,1.13,2.33c-0.55-0.05-0.96-0.23-1.39-0.38c-0.59-0.2-1.15-0.15-1.59,0.34
				c-0.43,0.47-0.52,1.03-0.29,1.61c0.12,0.28,0.35,0.52,0.53,0.77c-0.2,0.39-0.38,0.75-0.61,1.2c0.44,0.07,0.79,0.13,1.05,0.18
				c0.04,0.43-0.07,0.99,0.15,1.21c0.25,0.24,0.8,0.16,1.26,0.22c0.02,1.61,1.51,1.7,2.57,2.32c0.32-0.45,0.56-0.89,0.89-1.23
				c0.16-0.17,0.64-0.32,0.73-0.23c0.53,0.52,0.95,0.18,1.41-0.07c0.23-0.13,0.48-0.23,0.66-0.31c0.57,0.84,1.09,1.6,1.62,2.36
				c0.27-0.45,0.37-0.83,0.46-1.21c0.06-0.29,0.04-0.63,0.17-0.88c0.11-0.22,0.4-0.34,0.61-0.51c0.12,0.22,0.33,0.44,0.32,0.66
				c0,0.33-0.14,0.67-0.24,1c-0.1,0.38-0.25,0.75-0.32,1.13c-0.11,0.57,0.14,0.79,0.64,0.51c0.4-0.22,0.72-0.62,1-0.99
				c0.44-0.59,0.78-1.25,1.23-1.83c0.4-0.5,0.96-0.57,1.62-0.35c-0.56,1.5-2.26,2.41-2.14,4.24c0.87-0.57,1.71-1.12,2.54-1.66
				c0.07,0.05,0.15,0.1,0.22,0.15c-0.2,0.72-0.4,1.43-0.59,2.15c-0.06,0.22-0.24,0.53-0.16,0.64c0.42,0.56,0.83,1.18,1.4,1.56
				c0.57,0.38,1.23,0.07,1.7-0.4c0.42-0.42,0.78-0.91,1.16-1.37c0.2-0.25,0.38-0.52,0.57-0.78c-0.03,0.31-0.21,0.52-0.29,0.77
				c-0.23,0.67-0.46,1.35-0.61,2.04c-0.05,0.22,0.09,0.64,0.25,0.71c0.22,0.09,0.6,0,0.8-0.15c0.4-0.3,0.75-0.68,1.08-1.07
				c0.49-0.59,0.95-1.22,1.47-1.89c0.03,1.6-1.43,4.01-2.83,4.6c0.2,0.26,0.35,0.52,0.56,0.7c0.34,0.29,0.77,0.48,1.1,0.79
				c0.61,0.56,1.02,0.61,1.72,0.14c0.26-0.18,0.55-0.32,0.83-0.48c0.08,0.07,0.16,0.15,0.24,0.22c-0.43,0.78-0.86,1.56-1.28,2.33
				c1.39,0.24,2.5-0.35,3.45-1.31c0.72-0.72,1.36-1.51,2.1-2.21c0.46-0.44,1.04-0.75,1.65-1.19c0.24,1.04-0.06,1.76-0.48,2.43
				c-0.76,1.19-1.78,2.02-3.5,2.09c0.54,0.4,0.87,0.73,1.27,0.91c0.39,0.17,0.84,0.18,1.17,0.24c-0.33,0.46-0.71,0.97-1.15,1.57
				c1.91,0.54,2.85-0.95,4.3-1.6c0.09,0.7,0.24,1.3,0.22,1.9c-0.01,0.25-0.43,0.46-0.51,0.74c-0.1,0.33-0.12,0.73-0.02,1.05
				c0.08,0.26,0.38,0.44,0.49,0.56c-0.14,0.6-0.25,1.1-0.4,1.74c1.53-0.28,2.61-0.96,3.45-1.91c1.31-1.49,2.51-3.07,3.76-4.61
				c0.18-0.22,0.37-0.44,0.56-0.65c0.14,0.45,0.2,0.85,0.13,1.22c-0.4,2.14-0.88,4.23-2.48,5.88c-0.73,0.75-0.82,1.77-0.37,2.63
				c1.03-0.17,1.68-0.89,2.37-1.57c0.61-0.6,1.17-1.27,1.87-1.74c0.4-0.27,1.18-0.46,1.52-0.26c1.11,0.68,1.82,0.18,2.55-0.56
				c0.29-0.29,0.61-0.56,0.92-0.84c0.06,0.05,0.12,0.1,0.18,0.15c-0.19,0.36-0.32,0.75-0.57,1.06c-0.75,0.93-1.53,1.84-2.32,2.74
				c-0.83,0.95-1.7,1.86-2.19,3.11c0.82,0.22,1.55,0.09,2.14-0.38c0.68-0.54,1.38-1.11,1.9-1.8c1.42-1.88,2.75-3.82,4.12-5.73
				c0.16-0.23,0.38-0.41,0.6-0.65c0.59,1,0.65,1.97,0.2,2.88c-0.47,0.94-1.08,1.82-1.66,2.7c-0.75,1.13-1.6,2.21-2.3,3.36
				c-0.33,0.53-0.42,1.21-0.62,1.82c0.09,0.06,0.17,0.12,0.26,0.18c0.61-0.43,1.29-0.79,1.82-1.31c1.3-1.25,2.45-2.63,3.25-4.27
				c0.77-1.57,2.03-2.48,3.8-2.6c0.23-0.02,0.56,0.08,0.7,0.25c0.55,0.68,1.06,1.4,1.57,2.11c0.36,0.51,0.34,0.91-0.23,1.33
				c-0.95,0.69-1.24,1.93-0.85,3.07c0.31-0.4,0.63-0.8,1.05-1.35c0.14,0.63,0.19,1.06,0.33,1.47c0.09,0.25,0.32,0.65,0.47,0.65
				c0.26-0.01,0.56-0.24,0.75-0.47c0.18-0.22,0.22-0.55,0.35-0.82c0.19-0.38,0.42-0.74,0.72-1.28c0.38,0.55,0.67,0.92,0.91,1.32
				c0.4,0.65,0.72,1.35,1.17,1.96c0.58,0.8,1.38,0.74,1.8-0.13c0.49-0.99,0.96-2,1.31-3.05c0.41-1.24,0.77-2.52,0.33-3.86
				c-0.06-0.19-0.01-0.41-0.01-0.75c1.94,2.22,2,3.47,0.41,5.67c0.3,0.65,0.8,0.87,1.47,0.61c0.54-0.2,1.04-0.5,1.58-0.69
				c0.23-0.08,0.53-0.07,0.76,0c1.02,0.34,2,0.85,3.05,1.07c1.76,0.37,3.55,0.57,5.33,0.82c0.75,0.11,1.33,0.43,1.78,1.06
				c0.35,0.5,0.78,0.94,1.27,1.52c0-0.32,0.02-0.48,0-0.63c-0.07-0.4-0.16-0.79-0.25-1.24c0.14,0.06,0.24,0.1,0.33,0.15
				c9.31,5.72,19.49,8.87,30.28,10.07c7.51,0.83,15.03,0.72,22.52-0.35c8.33-1.2,16.28-3.63,23.76-7.53
				c0.71-0.37,1.41-0.76,2.15-1.17c0.03,0.23,0.06,0.4,0.1,0.65c0.25-0.29,0.45-0.51,0.64-0.74c0.74-0.93,1.65-1.62,2.82-1.86
				c0.79-0.16,1.6-0.21,2.4-0.32c1.92-0.25,3.85-0.48,5.57-1.5c0.19-0.11,0.53-0.06,0.76,0.02c0.52,0.19,1,0.48,1.52,0.67
				c0.76,0.27,1.11,0.1,1.49-0.64c-1.58-1.94-1.47-3.9,0.42-5.53c-0.02,0.32-0.03,0.56-0.06,0.79c-0.05,0.5-0.21,1.02-0.15,1.5
				c0.24,1.87,0.9,3.62,1.81,5.27c0.46,0.84,1.17,0.93,1.76,0.18c0.43-0.56,0.74-1.22,1.12-1.83c0.28-0.46,0.59-0.9,0.97-1.47
				c0.27,0.39,0.47,0.61,0.6,0.86c0.2,0.39,0.3,0.84,0.53,1.19c0.16,0.23,0.48,0.46,0.74,0.48c0.15,0.01,0.38-0.39,0.47-0.65
				c0.15-0.41,0.21-0.86,0.35-1.46c0.44,0.57,0.77,0.99,1.12,1.45c0.2-1.44-0.05-2.66-1.15-3.59c-0.38-0.32-0.4-0.74-0.16-1.13
				c0.39-0.65,0.8-1.3,1.24-1.91c0.54-0.74,1.17-0.91,2.04-0.6c1.41,0.49,2.16,1.63,2.9,2.83c0.82,1.33,1.72,2.61,2.69,3.83
				c0.65,0.82,1.45,1.53,2.59,1.78c-0.08-1.41-0.78-2.49-1.53-3.54c-0.84-1.16-1.74-2.28-2.51-3.48c-0.41-0.64-0.59-1.41-0.88-2.12
				c1.53-0.65,1.57-0.63,2.37,0.54c0.9,1.31,1.78,2.65,2.76,3.9c0.58,0.74,1.29,1.38,2.02,1.98c0.62,0.51,1.38,0.66,2.36,0.4
				c-0.59-0.83-1.08-1.6-1.66-2.3c-0.78-0.94-1.67-1.79-2.44-2.74c-0.46-0.57-0.79-1.24-1.18-1.86c0.07-0.05,0.14-0.11,0.21-0.16
				c0.45,0.42,0.9,0.84,1.36,1.25c0.51,0.46,1.07,0.78,1.74,0.35c0.73-0.47,1.42-0.38,2.04,0.16c0.64,0.56,1.23,1.18,1.84,1.78
				c0.67,0.65,1.31,1.36,2.36,1.48c0.37-1.03,0.2-1.92-0.51-2.72c-0.33-0.38-0.77-0.72-0.96-1.17c-0.5-1.21-0.88-2.47-1.33-3.71
				c-0.25-0.7-0.04-1.1,0.76-1.24c0.35,0.47,0.7,0.98,1.1,1.45c1.01,1.17,2,2.36,3.08,3.46c0.69,0.7,1.59,1.16,2.72,1.33
				c0-0.32,0.05-0.6-0.01-0.84c-0.07-0.28-0.24-0.53-0.37-0.8c0.21-0.22,0.41-0.42,0.59-0.63c0.34-0.38,0.32-0.8-0.06-1.09
				c-0.41-0.32-0.62-0.64-0.49-1.16c0.11-0.45,0.18-0.91,0.28-1.43c1.42,0.68,2.37,2.12,4.26,1.58c-0.46-0.61-0.84-1.13-1.2-1.62
				c0.94,0.18,1.65-0.31,2.32-1.06c-2.51-0.46-4.31-2.58-3.78-4.42c0.94,0.31,1.59,0.99,2.24,1.67c0.64,0.66,1.25,1.36,1.93,1.98
				c0.85,0.78,1.87,1.11,3.11,0.88c-0.61-0.75-1.2-1.45-1.28-2.6c0.4,0.23,0.7,0.38,0.97,0.56c0.7,0.47,1.1,0.42,1.71-0.17
				c0.27-0.26,0.58-0.54,0.93-0.67c0.47-0.19,0.65-0.45,0.58-0.93c-1.16-0.27-2.78-2.95-2.65-4.36c0.67,0.82,1.32,1.65,2.01,2.43
				c0.33,0.37,0.73,0.89,1.27,0.6c0.55-0.29,0.33-0.93,0.18-1.38c-0.27-0.82-0.65-1.6-1.02-2.47c0.35,0.49,0.64,0.95,0.99,1.37
				c0.4,0.47,0.81,0.96,1.29,1.34c0.57,0.45,1.24,0.38,1.79-0.05c0.77-0.61,1.03-1.27,0.81-1.99c-0.21-0.71-0.39-1.43-0.59-2.15
				c0.07-0.05,0.14-0.1,0.22-0.15c0.83,0.54,1.67,1.09,2.5,1.63c0.05-0.02,0.11-0.04,0.16-0.07c-0.24-0.69-0.47-1.38-0.7-2.03
				c0.74-0.42,1.25-0.22,1.64,0.56c0.24,0.46,0.71,0.71,1.39,0.45c-0.15-0.62-0.3-1.24-0.45-1.87c0.26-0.13,0.49-0.26,0.76-0.4
				c0.16,0.54,0.3,1.04,0.5,1.74c0.63-0.93,1.15-1.71,1.71-2.53c0.36,0.19,0.73,0.42,1.14,0.57c0.19,0.07,0.5,0.07,0.65-0.04
				c0.46-0.34,0.8-0.26,1.1,0.19c0.26,0.38,0.52,0.75,0.79,1.13c1.14-0.59,2.58-0.76,2.6-2.29c0.48-0.08,1.04,0,1.25-0.24
				c0.22-0.24,0.1-0.79,0.13-1.2C263.59,133.82,263.94,133.76,264.35,133.69z M227.41,112.88c0.61,0.26,1.23,0.52,1.83,0.81
				c1.07,0.51,2.13,1.04,3.12,1.52c-1.69,0.17-3.46,0.34-5.35,0.53c-0.06-0.82-0.12-1.62-0.18-2.42
				C226.79,112.86,226.99,112.7,227.41,112.88z M204.21,94.49c-0.8,0.98-1.02,1.04-1.72,0.43
				C203.07,94.77,203.62,94.64,204.21,94.49z M177.23,87.82c2.18-3.37,3.99-6.91,4.83-10.87c0.57-2.7,0.47-5.4,0.17-8.13
				c-0.75-6.67,1.12-12.41,6.17-16.98c0.52-0.47,1.15-0.85,1.76-1.21c0.78-0.46,1.56-0.41,2.25,0.19c0.66,0.57,0.98,1.29,0.71,2.16
				c-0.27,0.88-0.86,1.41-1.77,1.55c-1.04,0.16-1.06,0.15-1.19,1.2c-0.37,2.99,0.08,5.9,0.98,8.74c0.5,1.6,1.09,3.21,1.92,4.66
				c1.84,3.23,2.41,6.69,2.28,10.33c-0.13,3.6-0.98,7.06-1.96,10.51c-0.9,3.17-1.6,6.39-2.35,9.6c-0.52,2.24-0.95,4.5-1.45,6.85
				c-5.58-4.16-11.71-7.11-18.27-9.32C173.31,93.96,175.25,90.88,177.23,87.82z M98.92,68.02c2.62-4.05,3.95-8.51,3.8-13.37
				c-0.02-0.53-0.17-0.81-0.71-0.89c-0.29-0.04-0.59-0.14-0.86-0.25c-1.11-0.48-1.53-1.66-1-2.77c0.53-1.11,1.73-1.52,2.79-0.92
				c1.82,1.03,3.06,2.66,4.17,4.37c2.83,4.35,3.59,9.15,2.55,14.14c-1.01,4.83-0.75,9.48,1,14.07c1.47,3.86,2.89,7.73,4.41,11.56
				c0.45,1.13,1.16,2.14,1.76,3.21c0.11,0.2,0.23,0.39,0.41,0.69c-5.86,2.16-11.26,4.98-16.28,8.74c-0.13-1.5-0.33-2.87-0.36-4.24
				c-0.06-2.64-0.99-5.03-1.84-7.47c-1.8-5.17-3.02-10.46-2.99-15.98C95.81,74.99,96.76,71.35,98.92,68.02z M76.95,84.22
				c1.48,0.98,3.21,0.88,4.87,1.11c1.28,0.17,2.5,0.48,3.29,1.92c-0.47,0.07-0.87,0.22-1.23,0.17c-0.89-0.12-1.77-0.32-2.65-0.49
				c-0.67-0.13-1.29-0.08-1.77,0.48c-0.87-1.06-1.73-2.1-2.59-3.14C76.89,84.25,76.93,84.22,76.95,84.22z M83.35,89.06
				c-0.01,0.11-0.01,0.21-0.02,0.32c-0.8,0-1.6,0.03-2.39-0.02c-0.22-0.01-0.43-0.26-0.64-0.4c0.03-0.08,0.07-0.15,0.1-0.23
				C81.39,88.84,82.37,88.95,83.35,89.06z M53.9,149.02c0.54-0.7,1.09-1.4,1.63-2.1C55.58,148.08,54.78,148.58,53.9,149.02z
				 M85.29,146.34c-5.44-0.11-10.82-0.68-16.08-2.11c-3.71-1.01-7.21-2.46-10.08-5.12c-1.08-1-2.05-2.12-3.03-3.23
				c-4.18-4.73-9.38-7.68-15.51-9.05c-0.05-0.01-0.09-0.02-0.13-0.03c-0.98-0.3-1.67-0.18-2.32,0.83c-0.98,1.52-2.58,2.03-4.37,1.77
				c-1.8-0.27-2.67-2.12-1.7-3.66c0.33-0.53,0.85-0.98,1.36-1.35c2.42-1.77,5.22-2.72,8.05-3.58c8.77-2.67,17.33-2.14,25.59,1.86
				c5.53,2.67,11.34,3.42,17.38,3.04c0.71-0.04,1.42-0.09,2.26-0.14c-2.12,7.1-1.71,13.98,1.19,20.76
				C86.98,146.35,86.14,146.36,85.29,146.34z M66.85,118.88c0.78-0.5,1.41-0.96,2.1-1.31c0.18-0.09,0.52,0.15,0.82,0.24
				c-0.52,0.64-0.93,1.15-1.41,1.73C67.97,119.37,67.52,119.18,66.85,118.88z M88.04,122.13c-0.09,0.21-0.19,0.41-0.31,0.66
				c-0.19-0.09-0.36-0.15-0.51-0.23c-4.82-2.59-9.35-5.59-13.27-9.44c-3.03-2.98-5.56-6.31-6.52-10.57c-0.4-1.78-0.6-3.6-1.07-5.36
				c-0.95-3.58-2.63-6.78-5.17-9.51c-0.34-0.36-0.63-0.47-1.05-0.17c-0.2,0.14-0.45,0.23-0.69,0.32c-1.16,0.44-2.3-0.13-2.68-1.34
				c-0.37-1.18,0.27-2.32,1.49-2.59c1.55-0.34,3.08-0.08,4.59,0.24c5.63,1.22,9.74,4.55,12.54,9.46c1.99,3.49,4.36,6.56,7.76,8.77
				c2.78,1.81,5.75,3.23,8.89,4.28c1.7,0.57,3.43,1.05,5.3,1.61c-1.69,2.29-3.34,4.54-5.02,6.77
				C90.65,117.26,89.2,119.61,88.04,122.13z M196.46,143.69c-2.46,5.51-6.45,9.73-11.24,13.27c-6.18,4.56-13.1,7.51-20.48,9.45
				c-5.54,1.46-11.18,2.14-16.9,2.31c-8.56,0.24-16.96-0.68-25.14-3.27c-7.29-2.3-14.03-5.66-19.85-10.68
				c-4.08-3.52-7.38-7.65-9.19-12.79c-2.5-7.07-1.5-13.76,2.39-20.09c3.13-5.09,7.51-8.9,12.49-12.07
				c6.69-4.26,14.02-6.84,21.76-8.39c4.95-0.99,9.96-1.39,14.66-1.44c10.88,0.12,21.09,1.84,30.75,6.27
				c6.33,2.9,11.99,6.73,16.52,12.08c3.52,4.15,5.73,8.91,6.23,14.37C198.79,136.54,198.02,140.19,196.46,143.69z M194.8,110.88
				c-0.87-0.87-1.67-1.81-2.5-2.72c0.04-0.08,0.09-0.16,0.13-0.24c0.91-0.18,1.82-0.37,2.73-0.55c4.07-0.82,7.98-2.1,11.54-4.28
				c2.62-1.61,4.69-3.78,6.5-6.24c2.99-4.06,6.79-6.94,11.82-7.97c2.04-0.42,4.11-0.63,6.18-0.19c1.5,0.32,2.21,1.35,1.86,2.61
				c-0.4,1.48-2.07,2.04-3.31,1.11c-0.24-0.18-0.47-0.36-0.84-0.65c-0.86,0.83-1.79,1.59-2.57,2.48c-2.62,3.01-4.44,6.46-5.4,10.33
				c-0.79,3.22-2.5,5.87-4.76,8.22c-3.84,3.98-8.51,6.73-13.58,9.02C200.68,117.62,197.99,114.07,194.8,110.88z M221.32,117.31
				c-0.79,0.31-1.51,0.6-2.25,0.9c-0.74-1.3,0.71-1.45,1.05-2.31C220.56,116.42,220.92,116.84,221.32,117.31z M233.95,149.11
				c-1.03-0.35-1.74-1.19-1.8-2.32C232.82,147.66,233.39,148.39,233.95,149.11z M251.44,129.33c-0.55,0.92-1.83,1.4-3.05,1.12
				c-1.21-0.27-2.15-0.92-2.76-2.02c-0.12-0.22-0.25-0.44-0.38-0.67c-6.62,1.42-12.19,4.58-16.39,9.89
				c-2.49,3.15-5.6,5.31-9.29,6.71c-4.43,1.69-9.05,2.54-13.76,2.92c-1.12,0.09-2.23,0.15-3.47,0.24c3-6.28,3.89-12.69,2.39-19.48
				c0.3,0,0.54,0,0.78,0c5.43,0.07,10.52-1.17,15.37-3.69c7.35-3.82,15.04-4.02,22.86-1.66c1.82,0.55,3.57,1.35,5.31,2.15
				c0.71,0.33,1.37,0.87,1.91,1.44C251.87,127.26,251.99,128.43,251.44,129.33z"/>
			<g>
				<g>
					<linearGradient id="SVGID_3_" gradientUnits="userSpaceOnUse" x1="110.5529" y1="151.1133" x2="183.0821" y2="151.1133">
						<stop  offset="0" style="stop-color:#03FF00"/>
						<stop  offset="0.4232" style="stop-color:#00FFFF"/>
						<stop  offset="0.753" style="stop-color:#9C00B2"/>
						<stop  offset="0.9426" style="stop-color:#FF0082"/>
					</linearGradient>
					<path class="st3" d="M110.55,147.09c2.85,0.51,5.84,1.12,8.85,1.54c2.66,0.38,5.35,0.68,8.04,0.79
						c6.9,0.27,13.81,0.54,20.72,0.56c5.6,0.01,11.21-0.24,16.81-0.56c5.62-0.33,11.21-1,16.7-2.26c0.4-0.09,0.79-0.18,1.19-0.27
						c0.01,0,0.03,0.02,0.23,0.15c-1.58,0.85-3.03,1.73-4.57,2.45c-4.91,2.3-10.11,3.65-15.44,4.55
						c-6.12,1.04-12.28,1.43-18.48,1.27c-8.9-0.23-17.7-1.19-26.17-4.19c-2.57-0.91-5.05-2.02-7.3-3.58
						C110.89,147.36,110.65,147.16,110.55,147.09z"/>
					<linearGradient id="SVGID_4_" gradientUnits="userSpaceOnUse" x1="110.957" y1="133.9999" x2="122.2417" y2="133.9999">
						<stop  offset="0" style="stop-color:#03FF00"/>
						<stop  offset="0.4232" style="stop-color:#00FFFF"/>
						<stop  offset="0.753" style="stop-color:#9C00B2"/>
						<stop  offset="0.9426" style="stop-color:#FF0082"/>
					</linearGradient>
					<path class="st4" d="M110.96,133.96c0-3.16,2.46-5.61,5.64-5.6c3.16,0,5.64,2.47,5.64,5.62c0,3.14-2.47,5.63-5.62,5.66
						C113.46,139.67,110.96,137.16,110.96,133.96z"/>
					<linearGradient id="SVGID_5_" gradientUnits="userSpaceOnUse" x1="171.17" y1="133.3871" x2="182.4586" y2="133.3871">
						<stop  offset="0" style="stop-color:#03FF00"/>
						<stop  offset="0.4232" style="stop-color:#00FFFF"/>
						<stop  offset="0.753" style="stop-color:#9C00B2"/>
						<stop  offset="0.9426" style="stop-color:#FF0082"/>
					</linearGradient>
					<path class="st5" d="M176.82,139.02c-3.16,0-5.64-2.45-5.65-5.61c-0.02-3.14,2.47-5.64,5.62-5.65c3.23,0,5.67,2.43,5.67,5.65
						C182.46,136.57,180.01,139.01,176.82,139.02z"/>
				</g>
			</g>
		</g>
		<g>
			<g>
				<linearGradient id="SVGID_6_" gradientUnits="userSpaceOnUse" x1="120.2753" y1="199.7961" x2="140.8319" y2="199.7961">
					<stop  offset="0" style="stop-color:#03FF00"/>
					<stop  offset="0.4232" style="stop-color:#00FFFF"/>
					<stop  offset="0.753" style="stop-color:#9C00B2"/>
					<stop  offset="0.9426" style="stop-color:#FF0082"/>
				</linearGradient>
				<path class="st6" d="M132.04,183.48l8.79,32.63h-5.01l-1.38-5.16h-7.79l-1.38,5.16h-5.01l8.79-32.63H132.04z M128.06,205.77
					h4.99l-2.47-10.43L128.06,205.77z"/>
				<linearGradient id="SVGID_7_" gradientUnits="userSpaceOnUse" x1="146.0811" y1="199.7961" x2="171.209" y2="199.7961">
					<stop  offset="0" style="stop-color:#03FF00"/>
					<stop  offset="0.4232" style="stop-color:#00FFFF"/>
					<stop  offset="0.753" style="stop-color:#9C00B2"/>
					<stop  offset="0.9426" style="stop-color:#FF0082"/>
				</linearGradient>
				<path class="st7" d="M161.87,199.21l9.34,16.77l-5.86,0.02l-6.63-11.2l-6.47,11.2h-6.17l9.49-16.8l-8.92-15.61h5.86l6.21,10.72
					l6.08-10.72h6.15L161.87,199.21z"/>
				<linearGradient id="SVGID_8_" gradientUnits="userSpaceOnUse" x1="176.4571" y1="199.9054" x2="191.4818" y2="199.9054">
					<stop  offset="0" style="stop-color:#03FF00"/>
					<stop  offset="0.4232" style="stop-color:#00FFFF"/>
					<stop  offset="0.753" style="stop-color:#9C00B2"/>
					<stop  offset="0.9426" style="stop-color:#FF0082"/>
				</linearGradient>
				<path class="st8" d="M176.46,183.81h4.92v27.29h10.1v4.9h-15.02V183.81z"/>
				<linearGradient id="SVGID_9_" gradientUnits="userSpaceOnUse" x1="189.0312" y1="199.8181" x2="210.0259" y2="199.8181">
					<stop  offset="0" style="stop-color:#03FF00"/>
					<stop  offset="0.4232" style="stop-color:#00FFFF"/>
					<stop  offset="0.753" style="stop-color:#9C00B2"/>
					<stop  offset="0.9426" style="stop-color:#FF0082"/>
				</linearGradient>
				<path class="st9" d="M189.03,183.64h20.99v5.07h-8.05V216h-4.9v-27.29h-8.05V183.64z"/>
			</g>
			<linearGradient id="SVGID_10_" gradientUnits="userSpaceOnUse" x1="65.3221" y1="223.3256" x2="220.0535" y2="223.3256">
				<stop  offset="0" style="stop-color:#03FF00"/>
				<stop  offset="0.4232" style="stop-color:#00FFFF"/>
				<stop  offset="0.753" style="stop-color:#9C00B2"/>
				<stop  offset="0.9426" style="stop-color:#FF0082"/>
			</linearGradient>
			<rect x="65.32" y="221.54" class="st10" width="154.73" height="3.58"/>
			<g>
				<linearGradient id="SVGID_11_" gradientUnits="userSpaceOnUse" x1="76.9664" y1="236.222" x2="85.4175" y2="236.222">
					<stop  offset="0" style="stop-color:#03FF00"/>
					<stop  offset="0.4232" style="stop-color:#00FFFF"/>
					<stop  offset="0.753" style="stop-color:#9C00B2"/>
					<stop  offset="0.9426" style="stop-color:#FF0082"/>
				</linearGradient>
				<path class="st11" d="M76.97,242.4v-12.35h2.27c1.71,0,3.16,0.6,4.37,1.81c1.2,1.21,1.81,2.66,1.81,4.37
					c0,1.7-0.6,3.15-1.81,4.36c-1.21,1.21-2.66,1.81-4.37,1.81H76.97z M78.85,231.92v8.6h0.39c1.19,0,2.2-0.42,3.04-1.26
					c0.84-0.84,1.26-1.85,1.26-3.04c0-1.19-0.42-2.21-1.26-3.05c-0.84-0.84-1.86-1.26-3.04-1.26H78.85z"/>
				<linearGradient id="SVGID_12_" gradientUnits="userSpaceOnUse" x1="87.4316" y1="236.222" x2="93.1543" y2="236.222">
					<stop  offset="0" style="stop-color:#03FF00"/>
					<stop  offset="0.4232" style="stop-color:#00FFFF"/>
					<stop  offset="0.753" style="stop-color:#9C00B2"/>
					<stop  offset="0.9426" style="stop-color:#FF0082"/>
				</linearGradient>
				<path class="st12" d="M87.43,230.05h5.72v1.88h-3.83v3.36h3.83v1.88h-3.83v3.36h3.83v1.88h-5.72V230.05z"/>
				<linearGradient id="SVGID_13_" gradientUnits="userSpaceOnUse" x1="95.1684" y1="236.1801" x2="101.8564" y2="236.1801">
					<stop  offset="0" style="stop-color:#03FF00"/>
					<stop  offset="0.4232" style="stop-color:#00FFFF"/>
					<stop  offset="0.753" style="stop-color:#9C00B2"/>
					<stop  offset="0.9426" style="stop-color:#FF0082"/>
				</linearGradient>
				<path class="st13" d="M97.91,242.42c-0.54,0-1.01-0.07-1.42-0.2c-0.41-0.13-0.85-0.37-1.32-0.72v-2.31
					c0.29,0.31,0.52,0.52,0.67,0.63c0.16,0.11,0.35,0.22,0.58,0.35s0.48,0.23,0.75,0.31c0.27,0.08,0.55,0.13,0.81,0.13
					c0.55,0,1.01-0.19,1.36-0.57c0.35-0.38,0.53-0.84,0.53-1.36c0-0.43-0.15-0.78-0.45-1.05c-0.3-0.27-0.8-0.58-1.49-0.92
					c-0.41-0.21-0.76-0.4-1.05-0.58c-0.28-0.17-0.56-0.39-0.82-0.65c-0.26-0.26-0.48-0.56-0.64-0.92c-0.16-0.36-0.24-0.77-0.24-1.25
					c0.02-0.47,0.14-0.91,0.34-1.31c0.21-0.41,0.49-0.76,0.84-1.07c0.35-0.31,0.75-0.54,1.2-0.71c0.45-0.17,0.93-0.25,1.42-0.25
					c0.37,0.01,0.72,0.06,1.02,0.15c0.31,0.09,0.66,0.26,1.05,0.5v1.94c-0.24-0.16-0.4-0.25-0.48-0.29
					c-0.09-0.04-0.21-0.1-0.37-0.18c-0.16-0.09-0.34-0.16-0.55-0.22c-0.21-0.06-0.43-0.09-0.67-0.09c-0.53,0.01-0.97,0.17-1.33,0.5
					c-0.36,0.33-0.55,0.71-0.55,1.14c0.01,0.41,0.16,0.73,0.46,0.98c0.29,0.24,0.77,0.52,1.42,0.82c0.45,0.21,0.81,0.4,1.09,0.56
					s0.56,0.37,0.83,0.63c0.27,0.26,0.5,0.58,0.66,0.97c0.17,0.39,0.26,0.86,0.27,1.39c0,0.49-0.1,0.96-0.31,1.41
					c-0.21,0.44-0.5,0.84-0.86,1.18c-0.37,0.34-0.79,0.61-1.27,0.8S98.43,242.42,97.91,242.42z"/>
				<linearGradient id="SVGID_14_" gradientUnits="userSpaceOnUse" x1="103.4255" y1="236.1801" x2="111.3145" y2="236.1801">
					<stop  offset="0" style="stop-color:#03FF00"/>
					<stop  offset="0.4232" style="stop-color:#00FFFF"/>
					<stop  offset="0.753" style="stop-color:#9C00B2"/>
					<stop  offset="0.9426" style="stop-color:#FF0082"/>
				</linearGradient>
				<path class="st14" d="M107.94,229.92l3.37,12.52h-1.92l-0.53-1.98h-2.99l-0.53,1.98h-1.92l3.37-12.52H107.94z M106.41,238.47
					h1.91l-0.95-4L106.41,238.47z"/>
				<linearGradient id="SVGID_15_" gradientUnits="userSpaceOnUse" x1="113.3286" y1="236.222" x2="120.1253" y2="236.222">
					<stop  offset="0" style="stop-color:#03FF00"/>
					<stop  offset="0.4232" style="stop-color:#00FFFF"/>
					<stop  offset="0.753" style="stop-color:#9C00B2"/>
					<stop  offset="0.9426" style="stop-color:#FF0082"/>
				</linearGradient>
				<path class="st15" d="M115.21,238.95v3.43h-1.88v-12.35h1.88v0.01c0.11-0.01,0.22-0.01,0.33-0.01c1.17,0,2.17,0.44,2.99,1.31
					c0.82,0.87,1.23,1.92,1.23,3.16c0,1.24-0.41,2.29-1.23,3.16c-0.21,0.22-0.42,0.41-0.65,0.57l2.24,4.19h-2.01l-1.86-3.51
					c-0.23,0.04-0.47,0.06-0.71,0.06C115.43,238.97,115.32,238.96,115.21,238.95z M115.21,231.88v5.22
					c0.11,0.02,0.22,0.03,0.33,0.03c0.69,0,1.27-0.26,1.76-0.77c0.49-0.51,0.73-1.14,0.73-1.86c0-0.73-0.24-1.35-0.73-1.86
					c-0.48-0.51-1.07-0.77-1.76-0.77C115.43,231.87,115.32,231.87,115.21,231.88z"/>
				<linearGradient id="SVGID_16_" gradientUnits="userSpaceOnUse" x1="122.1393" y1="236.222" x2="128.936" y2="236.222">
					<stop  offset="0" style="stop-color:#03FF00"/>
					<stop  offset="0.4232" style="stop-color:#00FFFF"/>
					<stop  offset="0.753" style="stop-color:#9C00B2"/>
					<stop  offset="0.9426" style="stop-color:#FF0082"/>
				</linearGradient>
				<path class="st16" d="M124.02,238.95v3.43h-1.88v-12.35h1.88v0.01c0.11-0.01,0.22-0.01,0.33-0.01c1.17,0,2.17,0.44,2.99,1.31
					c0.82,0.87,1.23,1.92,1.23,3.16c0,1.24-0.41,2.29-1.23,3.16c-0.21,0.22-0.42,0.41-0.65,0.57l2.24,4.19h-2.01l-1.86-3.51
					c-0.23,0.04-0.47,0.06-0.71,0.06C124.24,238.97,124.13,238.96,124.02,238.95z M124.02,231.88v5.22
					c0.11,0.02,0.22,0.03,0.33,0.03c0.69,0,1.27-0.26,1.76-0.77c0.49-0.51,0.73-1.14,0.73-1.86c0-0.73-0.24-1.35-0.73-1.86
					c-0.48-0.51-1.07-0.77-1.76-0.77C124.24,231.87,124.13,231.87,124.02,231.88z"/>
				<linearGradient id="SVGID_17_" gradientUnits="userSpaceOnUse" x1="130.9518" y1="236.1801" x2="143.6485" y2="236.1801">
					<stop  offset="0" style="stop-color:#03FF00"/>
					<stop  offset="0.4232" style="stop-color:#00FFFF"/>
					<stop  offset="0.753" style="stop-color:#9C00B2"/>
					<stop  offset="0.9426" style="stop-color:#FF0082"/>
				</linearGradient>
				<path class="st17" d="M143.65,236.19c0,0.86-0.17,1.67-0.5,2.42c-0.33,0.75-0.79,1.41-1.37,1.97c-0.58,0.56-1.25,1-2.01,1.33
					c-0.77,0.33-1.59,0.49-2.47,0.49c-0.88,0-1.71-0.16-2.48-0.49c-0.77-0.33-1.44-0.77-2.01-1.33c-0.58-0.56-1.03-1.22-1.37-1.97
					c-0.33-0.75-0.5-1.56-0.5-2.42c0-0.86,0.17-1.67,0.5-2.43c0.33-0.76,0.79-1.43,1.37-1.98c0.58-0.56,1.25-1,2.01-1.33
					c0.77-0.32,1.59-0.49,2.48-0.49c0.88,0,1.7,0.16,2.47,0.49c0.77,0.32,1.44,0.77,2.01,1.33c0.58,0.56,1.03,1.22,1.37,1.98
					C143.48,234.52,143.65,235.33,143.65,236.19z M132.98,236.19c0,0.6,0.11,1.16,0.34,1.68c0.22,0.52,0.53,0.98,0.92,1.37
					c0.39,0.39,0.85,0.69,1.38,0.91c0.53,0.22,1.09,0.33,1.69,0.33c0.59,0,1.15-0.11,1.68-0.33c0.53-0.22,0.98-0.53,1.37-0.91
					c0.39-0.39,0.7-0.84,0.92-1.37c0.22-0.52,0.34-1.08,0.34-1.68c0-0.6-0.11-1.16-0.34-1.68c-0.22-0.52-0.53-0.98-0.92-1.37
					c-0.39-0.39-0.85-0.69-1.37-0.91c-0.53-0.22-1.09-0.33-1.68-0.33c-0.6,0-1.16,0.11-1.69,0.33c-0.53,0.22-0.98,0.52-1.38,0.91
					c-0.39,0.39-0.7,0.84-0.92,1.37C133.09,235.03,132.98,235.59,132.98,236.19z"/>
				<linearGradient id="SVGID_18_" gradientUnits="userSpaceOnUse" x1="145.6626" y1="236.222" x2="151.4271" y2="236.222">
					<stop  offset="0" style="stop-color:#03FF00"/>
					<stop  offset="0.4232" style="stop-color:#00FFFF"/>
					<stop  offset="0.753" style="stop-color:#9C00B2"/>
					<stop  offset="0.9426" style="stop-color:#FF0082"/>
				</linearGradient>
				<path class="st18" d="M145.66,230.05h1.89v10.47h3.88v1.88h-5.76V230.05z"/>
				<linearGradient id="SVGID_19_" gradientUnits="userSpaceOnUse" x1="153.4412" y1="236.222" x2="159.2057" y2="236.222">
					<stop  offset="0" style="stop-color:#03FF00"/>
					<stop  offset="0.4232" style="stop-color:#00FFFF"/>
					<stop  offset="0.753" style="stop-color:#9C00B2"/>
					<stop  offset="0.9426" style="stop-color:#FF0082"/>
				</linearGradient>
				<path class="st19" d="M153.44,230.05h1.89v10.47h3.88v1.88h-5.76V230.05z"/>
				<linearGradient id="SVGID_20_" gradientUnits="userSpaceOnUse" x1="159.5838" y1="236.1801" x2="172.2805" y2="236.1801">
					<stop  offset="0" style="stop-color:#03FF00"/>
					<stop  offset="0.4232" style="stop-color:#00FFFF"/>
					<stop  offset="0.753" style="stop-color:#9C00B2"/>
					<stop  offset="0.9426" style="stop-color:#FF0082"/>
				</linearGradient>
				<path class="st20" d="M172.28,236.19c0,0.86-0.17,1.67-0.5,2.42c-0.33,0.75-0.79,1.41-1.37,1.97c-0.58,0.56-1.25,1-2.01,1.33
					c-0.77,0.33-1.59,0.49-2.47,0.49c-0.88,0-1.71-0.16-2.48-0.49c-0.77-0.33-1.44-0.77-2.01-1.33c-0.58-0.56-1.03-1.22-1.37-1.97
					c-0.33-0.75-0.5-1.56-0.5-2.42c0-0.86,0.17-1.67,0.5-2.43s0.79-1.43,1.37-1.98c0.58-0.56,1.25-1,2.01-1.33
					c0.77-0.32,1.59-0.49,2.48-0.49c0.88,0,1.7,0.16,2.47,0.49c0.77,0.32,1.44,0.77,2.01,1.33c0.58,0.56,1.03,1.22,1.37,1.98
					C172.11,234.52,172.28,235.33,172.28,236.19z M161.61,236.19c0,0.6,0.11,1.16,0.34,1.68c0.22,0.52,0.53,0.98,0.92,1.37
					c0.39,0.39,0.85,0.69,1.38,0.91c0.53,0.22,1.09,0.33,1.69,0.33c0.59,0,1.15-0.11,1.68-0.33c0.53-0.22,0.98-0.53,1.37-0.91
					c0.39-0.39,0.7-0.84,0.92-1.37c0.22-0.52,0.34-1.08,0.34-1.68c0-0.6-0.11-1.16-0.34-1.68c-0.22-0.52-0.53-0.98-0.92-1.37
					c-0.39-0.39-0.85-0.69-1.37-0.91c-0.53-0.22-1.09-0.33-1.68-0.33c-0.6,0-1.16,0.11-1.69,0.33c-0.53,0.22-0.98,0.52-1.38,0.91
					c-0.39,0.39-0.7,0.84-0.92,1.37C161.73,235.03,161.61,235.59,161.61,236.19z"/>
				<linearGradient id="SVGID_21_" gradientUnits="userSpaceOnUse" x1="180.0319" y1="236.4026" x2="192.267" y2="236.4026">
					<stop  offset="0" style="stop-color:#03FF00"/>
					<stop  offset="0.4232" style="stop-color:#00FFFF"/>
					<stop  offset="0.753" style="stop-color:#9C00B2"/>
					<stop  offset="0.9426" style="stop-color:#FF0082"/>
				</linearGradient>
				<path class="st21" d="M183.41,242.4l-3.37-11.99H182l1.86,6.65l2.12-6.55l0.03-0.1l0.13,0.04l0.13-0.04l0.03,0.1l2.12,6.56
					l1.86-6.66h1.96l-3.37,11.99h-0.7l-2.05-6.3l-2.05,6.3H183.41z"/>
				<linearGradient id="SVGID_22_" gradientUnits="userSpaceOnUse" x1="194.281" y1="236.222" x2="200.0038" y2="236.222">
					<stop  offset="0" style="stop-color:#03FF00"/>
					<stop  offset="0.4232" style="stop-color:#00FFFF"/>
					<stop  offset="0.753" style="stop-color:#9C00B2"/>
					<stop  offset="0.9426" style="stop-color:#FF0082"/>
				</linearGradient>
				<path class="st22" d="M194.28,230.05H200v1.88h-3.83v3.36H200v1.88h-3.83v3.36H200v1.88h-5.72V230.05z"/>
				<linearGradient id="SVGID_23_" gradientUnits="userSpaceOnUse" x1="202.0178" y1="236.222" x2="209.6041" y2="236.222">
					<stop  offset="0" style="stop-color:#03FF00"/>
					<stop  offset="0.4232" style="stop-color:#00FFFF"/>
					<stop  offset="0.753" style="stop-color:#9C00B2"/>
					<stop  offset="0.9426" style="stop-color:#FF0082"/>
				</linearGradient>
				<path class="st23" d="M202.02,242.4v-12.35h2.86c0.79,0,1.46,0.28,2.01,0.83c0.55,0.55,0.83,1.22,0.83,2.01
					c0,0.77-0.27,1.43-0.8,1.98c0.57,0.18,1.09,0.5,1.55,0.96c0.75,0.76,1.12,1.66,1.12,2.73s-0.38,1.97-1.13,2.72
					c-0.75,0.75-1.66,1.13-2.72,1.13H202.02z M203.9,234.03h0.98c0.27,0,0.5-0.1,0.68-0.31c0.19-0.2,0.28-0.46,0.28-0.75
					c0-0.29-0.09-0.54-0.28-0.74c-0.19-0.2-0.41-0.31-0.68-0.31h-0.98V234.03z M203.9,236.33v2.83v1.36h1.85
					c0.54,0,1.01-0.21,1.39-0.62c0.39-0.41,0.58-0.9,0.58-1.48c0-0.57-0.19-1.06-0.58-1.47c-0.39-0.41-0.85-0.62-1.39-0.62H203.9z"
					/>
			</g>
			<g>
				<g>
					<linearGradient id="SVGID_24_" gradientUnits="userSpaceOnUse" x1="74.9441" y1="200.4252" x2="124.0563" y2="200.4252">
						<stop  offset="0" style="stop-color:#03FF00"/>
						<stop  offset="0.4232" style="stop-color:#00FFFF"/>
						<stop  offset="0.753" style="stop-color:#9C00B2"/>
						<stop  offset="0.9426" style="stop-color:#FF0082"/>
					</linearGradient>
					<path class="st24" d="M74.94,198.32c0.08-0.46,0.17-0.91,0.24-1.37c0.53-3.57,2.22-6.49,4.95-8.82
						c2.07-1.76,4.46-2.83,7.17-3.17c0.61-0.08,1.21-0.17,1.82-0.17c2.6,0.01,4.96,0.79,7.07,2.32c1.99,1.44,3.41,3.36,4.48,5.54
						c0.08,0.16,0.16,0.33,0.26,0.52c0.19-0.11,0.35-0.21,0.52-0.31c2.98-1.77,6.1-3.19,9.5-3.95c2.07-0.47,4.16-0.64,6.28-0.43
						c2.4,0.24,4.62,0.99,6.59,2.41c0.28,0.2,0.25,0.43,0.23,0.68c0,0.04-0.06,0.11-0.1,0.12c-0.21,0.06-0.43,0.15-0.64,0.15
						c-2.64-0.09-4.96,0.73-6.98,2.42c-1.23,1.03-2.2,2.3-3.17,3.57c-2.1,2.76-3.97,5.69-5.91,8.56c-1.73,2.57-3.81,4.81-6.43,6.51
						c-2.24,1.46-4.69,2.39-7.33,2.85c-1.17,0.2-2.35,0.32-3.53,0.29c-2.9-0.06-5.52-0.95-7.81-2.73c-3.69-2.86-6.04-6.57-6.88-11.2
						c-0.1-0.57-0.13-1.16-0.2-1.73c-0.02-0.17-0.08-0.33-0.12-0.5C74.94,199.37,74.94,198.84,74.94,198.32z M117.56,190.79
						c0,0-0.03-0.02-0.07-0.02c-0.07-0.01-0.13-0.02-0.2-0.03c-1.32-0.06-2.62,0.12-3.9,0.41c-4.18,0.96-8.03,2.74-11.76,4.8
						c-0.1,0.06-0.19,0.22-0.21,0.34c-0.09,0.66-0.15,1.33-0.24,1.99c-0.35,2.44-1.45,4.49-3.34,6.06
						c-2.56,2.13-5.49,2.84-8.75,2.01c-0.66-0.17-1.26-0.47-1.69-1.02c-0.58-0.76-0.3-1.61,0.62-1.86c0.6-0.16,1.2-0.08,1.78,0.08
						c0.92,0.25,1.84,0.26,2.77,0.06c3.33-0.74,5.92-3.79,5.34-7.86c-0.37-2.64-1.74-4.68-3.99-6.11c-1.96-1.25-4.09-1.57-6.34-1.14
						c-4.17,0.8-7.02,3.22-8.51,7.17c-0.92,2.46-0.75,4.99-0.09,7.48c0.79,2.94,2.45,5.36,4.71,7.35c2.11,1.86,4.61,2.73,7.42,2.64
						c2.03-0.06,4-0.51,5.89-1.26c4.16-1.65,7.08-4.73,9.42-8.39c1.62-2.53,3.16-5.11,5.04-7.45c1.23-1.53,2.54-2.97,4.16-4.1
						C116.26,191.51,116.93,191.17,117.56,190.79z"/>
				</g>
			</g>
		</g>
	</g>
	<linearGradient id="SVGID_25_" gradientUnits="userSpaceOnUse" x1="230.3195" y1="127.7166" x2="60.2575" y2="127.1535">
		<stop  offset="0" style="stop-color:#03FF00"/>
		<stop  offset="0.4232" style="stop-color:#00FFFF"/>
		<stop  offset="0.753" style="stop-color:#9C00B2"/>
		<stop  offset="0.9426" style="stop-color:#FF0082"/>
	</linearGradient>
	<path class="st25" d="M221.27,118.5l-1.66-5.38l-11.25,3.48c0.03-0.37,0.05-0.73,0.05-1.08c0-11.16-17.38-8.09-31.33-8.09
		c-12.47,0-22.8,7.23-24.87,16.74c-1.79-0.98-3.83-1.64-5.99-1.64c-2.69,0-5.19,1.02-7.26,2.4c-1.67-9.87-12.22-17.49-25.01-17.49
		c-13.96,0-31.33-3.08-31.33,8.09c0,0.06,0.01,0.13,0.01,0.2l-8.39-2.6l-1.66,5.38l11.51,3.56c4.46,11.33,18.33,25.81,29.87,25.81
		c12.48,0,22.82-7.25,24.87-16.76c2.1-0.59,4.64-1.17,7.4-1.17c2.13,0,4.14,0.35,5.91,0.78c1.85,9.71,12.3,17.15,24.95,17.15
		c11.2,0,24.6-13.65,29.46-24.81L221.27,118.5z"/>
</g>
</svg>

