<!-- Generator: Adobe Illustrator 24.1.0, SVG Export Plug-In  -->
<svg version="1.1" xmlns="http://www.w3.org/2000/svg" xmlns:xlink="http://www.w3.org/1999/xlink" x="0px" y="0px" width="157.2px"
	 height="101.55px" viewBox="0 0 157.2 101.55" style="enable-background:new 0 0 157.2 101.55;" xml:space="preserve">
<style type="text/css">
	.st0{fill:url(#SVGID_1_);}
	.st1{fill:url(#SVGID_2_);}
</style>
<defs>
</defs>
<g>
	<g>
		
			<linearGradient id="SVGID_1_" gradientUnits="userSpaceOnUse" x1="27.8226" y1="50.776" x2="129.3746" y2="50.776" gradientTransform="matrix(6.123234e-17 1 -1 6.123234e-17 129.3746 -27.8226)">
			<stop  offset="0" style="stop-color:#7D1043"/>
			<stop  offset="0.3205" style="stop-color:#A90C55"/>
			<stop  offset="1" style="stop-color:#F15A24"/>
		</linearGradient>
		<path class="st0" d="M152.95,28.16c0.11,0.53,0.16,1.08,0.33,1.59c0.58,1.76,1.31,3.47,1.8,5.26c3.96,14.43,2.3,28.32-4.38,41.6
			c-4.13,8.22-10.45,14.38-18.69,18.54c-3.38,1.71-6.91,3-10.55,4.02c-8.19,2.29-16.5,2.98-24.95,1.86
			c-9.85-1.3-18.9-4.88-27.4-9.89c-9.51-5.6-18.89-11.43-28.72-16.48c-4.51-2.32-9.03-4.62-13.99-5.9
			c-8.14-2.1-15.92-1.25-23.38,2.62c-0.6,0.31-1.36,0.34-2.05,0.47c-0.14,0.02-0.39-0.09-0.45-0.22c-0.39-0.72-0.79-1.34-0.27-2.29
			c3.74-6.78,9.07-11.99,15.63-15.96c5.78-3.5,12.04-5.86,18.62-7.36c10.81-2.47,21.72-2.68,32.71-1.68
			c0.61,0.06,1.21,0.11,1.9,0.17c0.01-0.68,0.03-1.26,0.03-1.84c0.08-7.75,1.53-15.19,5.27-22.07c3.95-7.28,9.66-12.76,17.13-16.35
			c1.74-0.84,3.62-1.4,5.46-2.01c8.23-2.73,16.57-2.94,24.93-0.72c11.03,2.93,19.88,9.02,26.3,18.53c0.82,1.22,1.71,2.4,2.56,3.6
			C151.51,25.15,152.23,26.65,152.95,28.16z"/>
	</g>
</g>
</svg>

