<!-- Generator: Adobe Illustrator 24.1.0, SVG Export Plug-In  -->
<svg version="1.1" xmlns="http://www.w3.org/2000/svg" xmlns:xlink="http://www.w3.org/1999/xlink" x="0px" y="0px" width="257px"
	 height="257px" viewBox="0 0 257 257" style="enable-background:new 0 0 257 257;" xml:space="preserve">
<style type="text/css">
	.st0{fill:url(#SVGID_1_);}
	.st1{fill:#FFFFFF;}
	.st2{fill:url(#SVGID_2_);}
</style>
<defs>
</defs>
<g>
	<linearGradient id="SVGID_1_" gradientUnits="userSpaceOnUse" x1="0" y1="128.5" x2="257" y2="128.5">
		<stop  offset="0" style="stop-color:#7D1043"/>
		<stop  offset="0.3205" style="stop-color:#A90C55"/>
		<stop  offset="1" style="stop-color:#F15A24"/>
	</linearGradient>
	<circle class="st0" cx="128.5" cy="128.5" r="128.5"/>
</g>
<g>
	<path class="st1" d="M129.92,71.05c17.86,0,19.97,0.07,27.02,0.39c6.52,0.29,10.06,1.39,12.42,2.3c3.12,1.21,5.35,2.66,7.69,5
		c2.34,2.34,3.79,4.57,5,7.69c0.92,2.35,2,5.9,2.3,12.41c0.32,7.05,0.39,9.17,0.39,27.02c0,17.85-0.07,19.97-0.39,27.02
		c-0.3,6.52-1.39,10.06-2.3,12.42c-1.21,3.12-2.66,5.35-5,7.69c-2.34,2.34-4.57,3.79-7.69,5c-2.36,0.92-5.9,2.01-12.42,2.3
		c-7.05,0.32-9.17,0.39-27.02,0.39c-17.86,0-19.97-0.07-27.02-0.39c-6.52-0.3-10.06-1.39-12.42-2.3c-3.12-1.21-5.35-2.66-7.69-5
		c-2.34-2.34-3.79-4.57-5-7.69c-0.92-2.36-2-5.9-2.3-12.42c-0.32-7.05-0.39-9.17-0.39-27.02c0-17.86,0.07-19.97,0.39-27.02
		c0.3-6.52,1.39-10.06,2.3-12.41c1.21-3.12,2.66-5.35,5-7.69c2.34-2.34,4.57-3.79,7.69-5c2.36-0.92,5.9-2.01,12.42-2.3
		C109.95,71.12,112.06,71.05,129.92,71.05 M129.92,59c-18.16,0-20.44,0.08-27.57,0.4c-7.12,0.33-11.98,1.46-16.23,3.11
		c-4.4,1.71-8.13,3.99-11.84,7.71c-3.72,3.72-6.01,7.45-7.71,11.85c-1.65,4.25-2.78,9.11-3.11,16.23
		c-0.33,7.13-0.41,9.41-0.41,27.57c0,18.16,0.08,20.44,0.41,27.57c0.32,7.12,1.45,11.98,3.11,16.23c1.71,4.4,3.99,8.13,7.71,11.85
		c3.71,3.72,7.44,6,11.84,7.71c4.25,1.65,9.11,2.78,16.23,3.11c7.13,0.32,9.41,0.4,27.57,0.4c18.16,0,20.44-0.08,27.57-0.4
		c7.12-0.32,11.97-1.46,16.23-3.11c4.4-1.71,8.13-3.99,11.84-7.71c3.72-3.72,6.01-7.45,7.71-11.85c1.65-4.25,2.78-9.11,3.11-16.23
		c0.33-7.13,0.41-9.41,0.41-27.57c0-18.16-0.08-20.44-0.41-27.57c-0.32-7.12-1.45-11.98-3.11-16.23c-1.71-4.4-3.99-8.13-7.71-11.85
		c-3.72-3.72-7.44-6-11.84-7.71c-4.26-1.66-9.11-2.78-16.23-3.11C150.35,59.08,148.08,59,129.92,59"/>
	<path class="st1" d="M129.92,91.53c-18.96,0-34.34,15.37-34.34,34.34s15.37,34.34,34.34,34.34c18.96,0,34.34-15.37,34.34-34.34
		S148.88,91.53,129.92,91.53 M129.92,148.16c-12.31,0-22.29-9.98-22.29-22.29c0-12.31,9.98-22.29,22.29-22.29
		c12.31,0,22.29,9.98,22.29,22.29C152.21,138.18,142.23,148.16,129.92,148.16"/>
	<path class="st1" d="M173.64,90.18c0,4.43-3.59,8.02-8.02,8.02c-4.43,0-8.02-3.59-8.02-8.02c0-4.43,3.59-8.03,8.02-8.03
		C170.04,82.15,173.64,85.74,173.64,90.18"/>
</g>
</svg>

