<!-- Generator: Adobe Illustrator 24.1.0, SVG Export Plug-In  -->
<svg version="1.1" xmlns="http://www.w3.org/2000/svg" xmlns:xlink="http://www.w3.org/1999/xlink" x="0px" y="0px"
	 width="178.76px" height="178.76px" viewBox="0 0 178.76 178.76" style="enable-background:new 0 0 178.76 178.76;"
	 xml:space="preserve">
<style type="text/css">
	.st0{fill:url(#SVGID_1_);}
	.st1{fill:#FFFFFF;}
	.st2{fill:url(#SVGID_2_);}
</style>
<defs>
</defs>
<linearGradient id="SVGID_1_" gradientUnits="userSpaceOnUse" x1="0" y1="89.3796" x2="178.7593" y2="89.3796">
	<stop  offset="0" style="stop-color:#7D1043"/>
	<stop  offset="0.3205" style="stop-color:#A90C55"/>
	<stop  offset="1" style="stop-color:#F15A24"/>
</linearGradient>
<circle class="st0" cx="89.38" cy="89.38" r="89.38"/>
<path class="st1" d="M72.9,128.81c37.76,0,58.4-31.28,58.4-58.4c0-0.89-0.02-1.78-0.06-2.65c4.01-2.9,7.49-6.51,10.24-10.63
	c-3.68,1.63-7.64,2.73-11.79,3.23c4.24-2.54,7.49-6.56,9.02-11.35c-3.97,2.35-8.36,4.06-13.03,4.98c-3.75-3.99-9.08-6.49-14.99-6.49
	c-11.34,0-20.53,9.19-20.53,20.53c0,1.61,0.18,3.18,0.53,4.68c-17.06-0.86-32.19-9.03-42.31-21.45c-1.76,3.03-2.78,6.56-2.78,10.32
	c0,7.12,3.62,13.41,9.14,17.08c-3.37-0.1-6.53-1.03-9.3-2.57c-0.01,0.09-0.01,0.17-0.01,0.26c0,9.94,7.08,18.24,16.47,20.13
	c-1.72,0.47-3.54,0.72-5.41,0.72c-1.32,0-2.61-0.13-3.86-0.37c2.61,8.16,10.19,14.09,19.18,14.26c-7.03,5.5-15.87,8.79-25.49,8.79
	c-1.66,0-3.29-0.1-4.9-0.28C50.52,125.41,61.31,128.81,72.9,128.81"/>
</svg>

