<!-- Generator: Adobe Illustrator 24.1.0, SVG Export Plug-In  -->
<svg version="1.1" xmlns="http://www.w3.org/2000/svg" xmlns:xlink="http://www.w3.org/1999/xlink" x="0px" y="0px"
	 width="178.76px" height="178.76px" viewBox="0 0 178.76 178.76" style="enable-background:new 0 0 178.76 178.76;"
	 xml:space="preserve">
<style type="text/css">
	.st0{fill:url(#SVGID_1_);}
	.st1{fill-rule:evenodd;clip-rule:evenodd;fill:#FFFFFF;}
	.st2{fill:url(#SVGID_2_);}
</style>
<defs>
</defs>
<linearGradient id="SVGID_1_" gradientUnits="userSpaceOnUse" x1="0" y1="89.3796" x2="178.7593" y2="89.3796">
	<stop  offset="0" style="stop-color:#7D1043"/>
	<stop  offset="0.3205" style="stop-color:#A90C55"/>
	<stop  offset="1" style="stop-color:#F15A24"/>
</linearGradient>
<circle class="st0" cx="89.38" cy="89.38" r="89.38"/>
<g>
	<path class="st1" d="M127.7,56.31c-9.18-9.18-21.38-14.24-34.39-14.25c-26.79,0-48.6,21.8-48.61,48.59
		c0,8.57,2.24,16.93,6.49,24.29l-6.9,25.18l25.77-6.76c7.1,3.87,15.09,5.91,23.23,5.92h0.02c26.79,0,48.6-21.8,48.61-48.6
		C141.93,77.71,136.88,65.5,127.7,56.31 M93.32,131.08H93.3c-7.25,0-14.36-1.95-20.56-5.63l-1.48-0.88l-15.29,4.01l4.08-14.91
		l-0.96-1.53c-4.05-6.43-6.18-13.86-6.18-21.5c0.01-22.27,18.13-40.39,40.42-40.39c10.79,0,20.94,4.21,28.57,11.84
		c7.63,7.63,11.83,17.78,11.82,28.57C133.71,112.96,115.59,131.08,93.32,131.08"/>
	<path class="st1" d="M115.48,100.83c-1.21-0.61-7.18-3.54-8.3-3.95c-1.12-0.4-1.92-0.61-2.73,0.61c-0.81,1.21-3.14,3.95-3.85,4.76
		c-0.71,0.81-1.42,0.91-2.63,0.3c-1.21-0.61-5.13-1.89-9.77-6.02c-3.61-3.22-6.05-7.2-6.75-8.41c-0.71-1.21-0.08-1.87,0.53-2.48
		c0.55-0.54,1.22-1.42,1.82-2.13c0.61-0.71,0.81-1.21,1.21-2.02c0.4-0.81,0.2-1.52-0.1-2.13c-0.3-0.61-2.73-6.58-3.75-9.01
		c-0.99-2.37-1.99-2.05-2.73-2.08c-0.71-0.04-1.52-0.04-2.33-0.04c-0.81,0-2.13,0.3-3.24,1.52c-1.11,1.21-4.25,4.15-4.25,10.13
		c0,5.98,4.35,11.75,4.96,12.56c0.61,0.81,8.56,13.08,20.75,18.33c2.9,1.25,5.16,2,6.92,2.56c2.91,0.92,5.56,0.79,7.65,0.48
		c2.33-0.35,7.19-2.94,8.2-5.78c1.01-2.83,1.01-5.27,0.71-5.77C117.5,101.74,116.7,101.44,115.48,100.83"/>
</g>
</svg>

