<!-- Generator: Adobe Illustrator 24.1.0, SVG Export Plug-In  -->
<svg version="1.1" xmlns="http://www.w3.org/2000/svg" xmlns:xlink="http://www.w3.org/1999/xlink" x="0px" y="0px" width="257px"
	 height="257px" viewBox="0 0 257 257" style="enable-background:new 0 0 257 257;" xml:space="preserve">
<style type="text/css">
	.st0{fill:url(#SVGID_1_);}
	.st1{fill:#FFFFFF;}
	.st2{fill:url(#SVGID_2_);}
</style>
<defs>
</defs>
<g>
	<linearGradient id="SVGID_1_" gradientUnits="userSpaceOnUse" x1="0" y1="128.5" x2="257" y2="128.5">
		<stop  offset="0" style="stop-color:#7D1043"/>
		<stop  offset="0.3205" style="stop-color:#A90C55"/>
		<stop  offset="1" style="stop-color:#F15A24"/>
	</linearGradient>
	<circle class="st0" cx="128.5" cy="128.5" r="128.5"/>
</g>
<path class="st1" d="M208.39,97.14c0,0-1.58-11.1-6.41-15.99c-6.13-6.42-12.99-6.45-16.14-6.82c-22.55-1.63-56.36-1.63-56.36-1.63
	h-0.07c0,0-33.82,0-56.36,1.63c-3.15,0.37-10.01,0.41-16.14,6.82c-4.83,4.89-6.4,15.99-6.4,15.99s-1.61,13.04-1.61,26.07v12.22
	c0,13.04,1.61,26.07,1.61,26.07s1.57,11.1,6.4,15.99c6.13,6.41,14.18,6.21,17.76,6.88c12.89,1.24,54.77,1.62,54.77,1.62
	s33.85-0.05,56.39-1.68c3.15-0.38,10.01-0.41,16.14-6.82c4.83-4.89,6.41-15.99,6.41-15.99s1.61-13.04,1.61-26.07v-12.22
	C210,110.18,208.39,97.14,208.39,97.14z M112.81,150.24v-45.26l43.53,22.71L112.81,150.24z"/>
</svg>

